<?xml version="1.0" standalone="no"?>
<!DOCTYPE svg PUBLIC "-//W3C//DTD SVG 20010904//EN"
 "http://www.w3.org/TR/2001/REC-SVG-20010904/DTD/svg10.dtd">
<svg version="1.0" xmlns="http://www.w3.org/2000/svg"
 width="1170.000000pt" height="500.000000pt" viewBox="0 0 1170.000000 500.000000"
 preserveAspectRatio="xMidYMid meet">

<g transform="translate(0.000000,500.000000) scale(0.100000,-0.100000)"
fill="#000000" stroke="none">
<path d="M0 2500 l0 -2500 1618 0 1617 0 119 90 c66 50 124 90 130 90 12 0 -8
-16 -124 -101 -47 -34 -89 -66 -94 -70 -6 -5 429 -9 977 -9 l987 0 0 40 0 40
373 3 372 2 -372 3 c-247 1 -373 5 -373 12 0 19 103 325 114 339 8 11 8 13 -1
7 -7 -4 -176 -8 -375 -9 l-363 -2 353 -2 353 -3 -38 -45 -38 -44 -351 -1 -351
0 -2 53 -1 53 142 163 c137 157 143 162 146 132 2 -17 5 -31 7 -31 3 0 63 9
135 21 71 11 137 19 145 17 12 -2 7 -15 -20 -56 l-36 -52 98 1 c70 1 89 3 65
9 -33 8 -54 20 -35 20 6 0 8 11 5 25 -2 15 0 25 7 25 6 0 11 8 11 18 -1 16 -2
16 -14 -1 -12 -15 -18 -17 -36 -7 -12 6 -20 14 -17 16 2 3 58 14 123 24 181
30 164 22 164 85 0 48 -2 55 -20 55 -15 0 -20 7 -20 25 0 18 5 25 20 25 18 0
20 7 20 60 0 33 7 76 14 95 l15 35 198 1 c109 1 226 2 261 1 57 0 62 1 62 21
0 17 -6 22 -27 23 -41 2 -135 14 -142 19 -4 2 -33 5 -64 6 -55 2 -57 3 -57 30
0 18 -6 29 -17 33 -10 3 21 4 69 3 l87 -2 7 40 c4 22 6 99 5 170 -2 72 -3 142
-3 158 -1 15 1 30 4 32 7 7 222 54 227 50 2 -2 13 -59 24 -127 21 -130 27
-291 17 -513 -3 -71 0 -157 5 -190 l10 -60 85 3 c47 1 104 5 128 8 l43 5 -1
192 c-1 186 -1 192 19 191 11 0 18 3 16 7 -3 4 2 10 11 13 24 9 344 7 344 -2
0 -5 -65 -7 -145 -5 -138 3 -145 2 -134 -15 7 -10 25 -24 40 -29 38 -15 39
-36 2 -27 -16 4 -25 3 -21 -1 11 -12 72 -14 79 -2 10 15 59 -1 59 -19 0 -13 4
-13 30 2 21 13 26 20 17 26 -8 5 -5 8 9 8 12 0 27 -7 34 -15 7 -8 16 -12 21
-9 5 3 9 1 9 -3 0 -5 9 -9 19 -9 17 0 17 3 -6 23 -13 13 -28 21 -32 19 -3 -3
-7 4 -7 15 0 24 24 25 33 2 15 -45 41 -53 181 -53 l132 0 0 -35 c0 -33 -2 -35
-35 -35 -36 0 -40 -6 -29 -47 9 -32 46 -30 81 3 15 15 49 40 76 56 26 16 47
32 47 35 0 3 -18 3 -40 1 -38 -3 -40 -2 -41 27 -1 16 -4 92 -8 169 l-6 139
-110 39 c-182 65 -226 78 -236 72 -5 -3 -9 0 -9 6 0 9 46 10 173 5 176 -8 233
-15 113 -15 -38 0 -65 -4 -61 -9 3 -5 38 -7 80 -4 66 5 75 4 75 -11 0 -15 11
-17 99 -14 89 4 100 2 104 -14 5 -19 27 -25 27 -7 0 6 17 9 43 7 29 -2 42 1
41 10 -1 6 -2 62 -2 122 -1 66 -6 110 -12 110 -5 0 -10 -7 -10 -15 0 -8 -7
-15 -15 -15 -8 0 -15 -7 -15 -15 0 -11 -11 -15 -36 -15 -29 0 -44 8 -76 39
-34 35 -39 45 -36 78 2 24 8 37 16 35 6 -1 12 5 12 13 0 8 7 15 15 15 8 0 15
7 15 15 0 11 11 15 41 15 33 0 46 -6 70 -32 l30 -33 -2 70 c-1 39 1 71 4 73 4
1 109 2 235 2 l227 0 2 -90 c3 -83 1 -94 -23 -130 -15 -22 -30 -38 -34 -35 -4
3 -7 -3 -6 -13 0 -9 -5 -16 -12 -14 -8 1 -11 -2 -7 -8 7 -12 -13 -52 -24 -46
-4 3 -8 0 -8 -7 0 -7 -17 -38 -37 -70 -21 -32 -36 -60 -34 -63 2 -2 56 -7 119
-10 182 -12 86 -25 -126 -18 -128 4 -176 3 -165 -5 12 -9 11 -11 -7 -11 -18 0
-46 -36 -138 -173 -111 -167 -117 -173 -145 -169 -42 6 -37 -8 14 -42 48 -32
85 -84 68 -95 -95 -60 -177 -126 -114 -92 12 6 41 11 66 11 36 0 44 3 40 15
-4 8 -1 15 5 15 6 0 11 -7 11 -15 0 -12 19 -15 113 -15 135 0 186 -19 57 -21
-67 -1 -78 -3 -50 -10 29 -6 26 -7 -15 -3 -90 8 -190 13 -175 9 14 -3 47 -7
280 -36 60 -8 105 -19 122 -30 29 -21 53 -25 42 -8 -4 7 2 7 17 -1 34 -18 38
-24 10 -15 -16 5 -21 4 -17 -4 5 -8 -11 -11 -51 -11 l-58 0 65 -39 c59 -36 65
-38 68 -20 3 14 12 19 33 19 26 0 29 3 29 30 l0 30 90 0 90 0 0 -30 c0 -27 3
-30 30 -30 27 0 30 -3 30 -30 0 -27 3 -30 30 -30 l30 0 0 -85 0 -85 -30 0
c-27 0 -30 -3 -30 -30 0 -27 -3 -29 -29 -26 -27 3 -30 0 -33 -28 l-3 -31 -88
0 -89 0 4 33 c4 32 4 33 -30 27 -34 -5 -34 -5 -30 26 5 30 4 31 -29 27 -22 -3
-33 0 -33 9 0 10 -32 12 -140 11 -77 -1 -140 -3 -140 -5 0 -1 41 -35 91 -74
49 -39 89 -73 87 -74 -2 -2 -145 -6 -318 -9 -173 -3 -308 -3 -300 0 8 3 29 12
47 20 17 8 35 14 41 14 5 0 16 7 23 16 12 15 5 16 -81 10 -52 -3 -89 -3 -82 0
6 3 12 23 12 44 0 34 3 39 28 43 15 3 -32 2 -104 -1 l-132 -5 -12 37 -12 36
-69 0 c-38 0 -69 -2 -69 -5 0 -7 58 -122 98 -195 l31 -54 -6 42 c-5 40 -4 42
21 42 19 0 26 5 26 20 0 24 38 28 46 5 4 -9 19 -15 35 -15 19 0 29 -5 29 -15
0 -12 13 -15 61 -15 52 0 60 -2 50 -14 -7 -8 -25 -13 -42 -12 -17 1 -28 -2
-26 -8 2 -6 11 -11 21 -11 9 0 21 -7 26 -15 13 -20 12 -33 -1 -25 -11 7 48
-79 88 -128 20 -25 23 -40 23 -113 l0 -84 45 0 c40 0 45 3 45 22 l0 22 16 -22
15 -22 930 0 c535 0 929 4 929 9 0 5 -15 12 -32 15 l-33 6 -3 87 c-8 232 -32
747 -35 750 -2 2 -109 40 -238 84 -129 44 -238 84 -243 89 -5 5 -1 7 11 4 11
-3 134 -6 274 -7 l254 -2 3 -31 c3 -29 1 -31 -22 -27 -36 7 -33 -10 4 -24 l30
-11 0 74 0 74 39 0 c33 0 40 -4 45 -24 4 -18 15 -25 43 -30 21 -3 241 -7 488
-8 248 -1 401 -4 340 -7 l-110 -6 65 -15 c48 -10 58 -15 38 -18 -15 -2 -70 6
-122 17 -107 23 -136 26 -136 11 0 -6 11 -8 26 -4 22 6 25 4 20 -12 -3 -11 1
-31 9 -46 13 -27 13 -28 -11 -34 -13 -3 -35 -3 -48 0 -15 4 -28 1 -32 -6 -4
-7 -4 -10 1 -6 4 4 14 3 21 -3 10 -8 22 -8 45 0 18 6 48 11 68 10 32 -1 33 -2
11 -8 -29 -9 122 -25 180 -19 31 3 27 5 -35 20 -38 9 -98 23 -132 29 -34 7
-60 16 -57 21 9 14 42 9 217 -34 l172 -43 -410 -6 c-226 -3 -494 -7 -597 -8
l-188 -1 0 -53 c0 -30 3 -88 6 -130 7 -75 7 -76 35 -75 27 1 29 4 29 45 l0 43
40 0 c38 0 40 -2 40 -29 0 -57 5 -61 91 -61 l79 0 0 -40 0 -40 45 0 45 0 -5
83 c-3 45 -8 101 -11 125 l-5 43 43 -3 c48 -3 45 4 47 -120 l1 -48 46 0 46 0
-3 37 c-3 42 -2 43 41 43 30 0 30 0 30 -59 0 -32 -3 -86 -6 -120 -6 -50 -10
-61 -25 -61 -12 0 -19 -7 -19 -18 0 -23 -40 -62 -63 -62 -12 0 -17 -8 -17 -29
0 -24 -5 -29 -31 -35 -45 -9 -47 -8 -52 16 -2 13 -3 10 -2 -7 1 -16 5 -38 10
-48 6 -14 2 -17 -19 -17 -14 0 -26 5 -26 10 0 6 -7 10 -15 10 -8 0 -15 -4 -15
-10 0 -5 7 -10 15 -10 8 0 15 -9 15 -20 0 -13 -7 -20 -20 -20 -12 0 -26 -12
-36 -33 -23 -45 -64 -87 -86 -87 -11 0 -18 -7 -18 -20 0 -13 -7 -20 -20 -20
-13 0 -20 -7 -20 -20 0 -20 7 -20 1270 -20 l1270 0 0 2500 0 2500 -2464 0
c-1963 0 -2465 -3 -2469 -12 -3 -10 -11 -10 -39 0 -42 15 -68 16 -68 2 0 -5
-7 -10 -15 -10 -8 0 -15 -4 -15 -10 0 -16 -19 -12 -42 10 -22 20 -36 20 -3305
20 l-3283 0 0 -2500z m5090 2475 c0 -8 7 -15 15 -15 8 0 15 -7 15 -15 0 -8 7
-15 15 -15 11 0 15 -12 15 -45 0 -27 -5 -45 -11 -45 -7 0 -22 -11 -35 -25 -27
-29 -88 -35 -98 -9 -3 8 -10 12 -16 9 -5 -3 -10 1 -10 9 0 9 -7 16 -15 16 -11
0 -15 12 -15 45 0 33 4 45 15 45 8 0 15 7 15 15 0 8 7 15 15 15 8 0 15 7 15
15 0 11 11 15 40 15 29 0 40 -4 40 -15z m1606 -29 c17 -18 18 -38 2 -54 -16
-16 -43 -15 -58 3 -9 11 -8 19 7 39 21 29 29 31 49 12z m-1338 -78 c22 -22 14
-62 -14 -75 -22 -10 -30 -9 -50 5 -28 20 -30 36 -6 61 20 22 53 26 70 9z m109
-10 c30 -28 30 -58 1 -58 -27 0 -68 37 -68 62 0 25 38 23 67 -4z m1277 -60
c19 -18 -15 -52 -43 -43 -23 7 -27 25 -9 43 15 15 35 15 52 0z m-1338 -32 c27
-28 17 -46 -26 -46 -45 0 -47 2 -22 35 20 28 28 30 48 11z m-1576 -98 c0 -2
-6 -23 -14 -48 l-13 -45 -102 -3 c-111 -3 -109 -4 -89 59 l11 39 104 0 c56 0
103 -1 103 -2z m479 -10 c0 -7 -30 -145 -67 -306 l-67 -293 -108 -2 c-59 -1
-107 2 -107 6 0 8 45 193 56 230 4 14 -1 17 -34 17 l-40 0 -14 -57 -14 -58
-72 -3 c-40 -2 -72 -2 -72 0 0 2 7 25 15 52 20 67 20 68 -22 64 l-38 -3 -25
-82 -24 -83 -61 -2 -60 -2 58 -3 c59 -4 61 -6 48 -51 -6 -23 -10 -24 -114 -25
-59 -1 -107 2 -107 6 0 5 16 60 36 123 l36 114 51 2 52 2 -47 3 c-27 2 -48 9
-48 15 0 5 16 62 36 125 l36 115 136 -4 c103 -3 136 -7 134 -17 -1 -7 -8 -32
-14 -56 -7 -25 -9 -47 -6 -51 4 -3 71 -2 149 3 l143 8 13 45 c7 25 11 49 9 55
-2 5 -10 -12 -18 -40 l-15 -50 -67 -3 c-74 -3 -75 -1 -55 71 l10 37 82 2 c48
1 64 3 38 5 l-43 4 6 41 c4 23 9 45 12 50 9 14 204 10 203 -4z m277 -5 c-2
-10 -7 -33 -11 -50 -6 -31 -9 -33 -51 -33 -24 0 -44 -1 -44 -3 0 -1 -4 -17 -9
-35 -6 -20 -6 -32 0 -32 5 0 12 14 16 30 5 27 9 30 44 30 36 0 39 -2 34 -22
-3 -13 -25 -126 -49 -253 l-43 -229 -59 1 c-32 1 -62 2 -65 2 -4 1 -1 28 6 61
7 33 9 60 5 60 -5 0 -14 -28 -22 -62 -13 -61 -13 -62 -48 -61 -19 0 -34 4 -33
9 1 5 30 143 64 307 l63 297 104 0 c94 0 103 -2 98 -17z m273 -25 c-4 -24 -8
-46 -9 -50 0 -4 -17 -9 -37 -11 -32 -3 -29 -4 17 -6 30 -2 62 -4 70 -5 11 -1
14 -11 11 -36 -8 -88 -9 -85 29 -85 l35 0 8 63 9 62 104 0 105 0 -5 -32 c-3
-18 -15 -118 -26 -223 -29 -269 -24 -250 -62 -248 -18 1 -37 2 -41 2 -5 1 -6
13 -3 29 13 70 17 132 8 132 -5 0 -13 -37 -18 -81 l-9 -82 -57 0 c-32 0 -59 3
-59 7 -2 10 12 128 18 153 4 20 12 23 76 26 57 2 49 3 -36 5 l-108 2 7 65 7
65 -36 0 c-38 0 -36 4 -52 -92 l-6 -38 -104 0 c-77 0 -105 3 -105 13 0 6 16
99 35 206 19 107 35 196 35 198 0 1 47 3 104 3 l103 0 -8 -42z m351 30 c0 -7
-3 -30 -6 -50 l-7 -38 -97 0 c-53 0 -99 2 -101 4 -2 3 -3 25 -1 50 l4 46 104
0 c77 0 104 -3 104 -12z m550 -43 l0 -55 -139 0 -140 0 -6 -44 c-13 -82 -17
-79 138 -80 l137 0 0 -63 0 -63 -144 0 -143 0 -7 -37 c-3 -21 -6 -50 -6 -65
l0 -28 101 0 c90 0 100 -2 97 -17 -2 -13 -14 -19 -40 -21 -35 -3 -37 -5 -40
-44 l-3 -40 -125 0 -125 0 2 61 c2 34 -1 61 -7 61 -5 0 -10 -28 -12 -61 l-3
-61 -37 -3 -37 -2 5 41 c9 78 54 541 54 559 0 16 18 17 240 17 l240 0 0 -55z
m560 0 l0 -55 -140 0 -140 0 0 -35 0 -35 -105 0 -105 0 0 90 0 90 245 0 245 0
0 -55z m144 -17 c4 -40 7 -91 9 -113 2 -38 4 -40 37 -41 26 -1 28 -1 8 3 -20
3 -28 10 -29 26 0 12 -4 61 -7 110 l-7 87 196 0 196 0 7 -62 c3 -35 9 -87 12
-115 l6 -53 -36 0 c-36 0 -37 -1 -34 -32 3 -30 6 -33 41 -36 28 -2 37 -8 37
-22 0 -22 18 -212 25 -260 l4 -35 -109 0 -109 0 -6 75 c-3 41 -8 99 -11 128
l-5 52 -39 0 c-27 0 -38 -4 -35 -12 2 -7 6 -65 9 -129 l7 -115 -38 1 c-33 2
-37 5 -38 31 -3 84 -9 98 -14 35 l-6 -64 -60 0 -60 0 -7 124 c-3 68 -8 168
-10 222 l-4 97 36 1 35 2 -35 6 -35 6 -3 78 -3 77 35 0 34 0 6 -72z m960 45
c11 -56 76 -443 76 -453 0 -7 -36 -10 -107 -8 l-108 3 -3 33 c-3 30 -6 32 -43
32 -21 0 -39 -3 -39 -7 0 -5 6 -48 14 -96 14 -96 12 -102 -36 -95 -18 2 -24
10 -26 36 -2 19 -9 32 -17 32 -12 0 -12 -5 -3 -25 6 -14 9 -28 5 -31 -3 -3
-33 -6 -66 -7 -70 -2 -62 -17 -81 148 -16 147 -15 153 23 158 l32 4 -36 1 -36
2 -12 108 c-6 59 -14 126 -17 150 l-6 42 240 0 240 0 6 -27z m288 5 c3 -20 10
-23 60 -26 52 -3 57 -5 67 -32 l10 -30 -65 0 -65 0 7 -37 c17 -89 15 -88 75
-90 30 -1 59 -2 65 -2 11 -1 35 -101 27 -113 -2 -5 -31 -8 -64 -8 -32 0 -59
-1 -59 -3 0 -1 11 -57 25 -125 14 -68 25 -124 25 -125 0 -1 -48 -1 -107 0
l-108 1 -17 84 c-9 46 -19 100 -22 121 l-6 37 39 0 c38 0 39 -1 46 -42 11 -64
28 -84 20 -24 -10 72 -12 75 -63 78 l-46 3 -28 155 c-15 85 -30 165 -33 178
-5 22 -4 22 104 22 106 0 110 -1 113 -22z m268 -8 c4 -14 10 -37 14 -52 l6
-28 -70 0 -69 0 -9 33 c-8 31 -10 32 -67 37 -47 4 -61 9 -63 23 -3 16 6 17
124 15 127 -3 128 -3 134 -28z m431 -22 c7 -29 13 -60 14 -68 2 -16 70 -254
81 -283 5 -15 -5 -17 -102 -17 l-109 0 -41 153 -41 152 -70 3 -70 3 -15 54
-15 55 177 0 178 0 13 -52z m119 45 c0 -5 7 -29 15 -55 l14 -48 -58 0 -58 0
-12 41 c-7 23 -15 47 -18 55 -4 11 8 14 56 14 34 0 61 -3 61 -7z m-4570 -94
c0 -6 -4 -7 -10 -4 -5 3 -10 11 -10 16 0 6 5 7 10 4 6 -3 10 -11 10 -16z
m2080 -239 l0 -150 145 0 145 0 0 -62 0 -63 -255 0 -255 0 0 93 0 92 45 0 45
0 -2 118 c-1 64 -3 99 -5 77 -1 -22 -5 -73 -9 -112 l-6 -73 -35 0 -36 0 7 53
c3 28 6 80 6 115 l0 62 105 0 105 0 0 -150z m1996 68 c6 -18 14 -46 18 -61 l7
-28 -73 3 -72 3 -13 50 c-7 28 -13 55 -13 60 0 6 28 9 67 8 68 -1 68 -1 79
-35z m-4835 -45 c13 -16 12 -17 -3 -4 -17 13 -22 21 -14 21 2 0 10 -8 17 -17z
m256 -45 c-3 -8 -6 -5 -6 6 -1 11 2 17 5 13 3 -3 4 -12 1 -19z m-16 -49 c-5
-13 -10 -19 -10 -12 -1 15 10 45 15 40 3 -2 0 -15 -5 -28z m1355 -41 c-3 -13
-10 -54 -16 -93 l-11 -70 -62 1 c-65 2 -75 10 -57 43 8 17 8 21 -4 21 -9 0
-16 -12 -18 -31 -3 -29 -6 -32 -40 -34 -33 -2 -37 0 -33 19 2 12 9 48 15 81 6
33 13 66 15 73 3 8 34 12 110 12 104 0 105 0 101 -22z m3739 -58 c13 -41 24
-81 26 -88 3 -10 -21 -13 -105 -13 l-110 -1 -23 84 c-12 46 -22 87 -23 91 0 4
48 6 106 5 l107 -3 22 -75z m-2797 -66 l-3 -36 -65 0 c-91 0 -90 0 -90 21 0
38 11 51 46 51 29 0 34 3 34 24 0 21 5 25 38 28 34 3 37 1 40 -24 2 -15 2 -44
0 -64z m-2466 -32 c2 -34 0 -62 -4 -62 -5 0 -7 42 -6 93 1 94 5 82 10 -31z
m124 52 c-9 -26 -16 -54 -16 -62 0 -7 21 -40 46 -73 l45 -59 -36 0 c-27 0 -48
10 -91 45 -30 25 -51 45 -45 45 5 0 28 -15 50 -34 42 -35 78 -52 88 -42 3 3
-11 27 -31 54 -20 27 -36 55 -36 62 0 20 33 120 38 115 2 -2 -3 -25 -12 -51z
m4108 48 c3 -5 8 -30 11 -58 l7 -49 -107 2 c-59 1 -108 3 -110 5 -1 2 -5 27
-9 56 l-7 52 105 0 c58 0 107 -4 110 -8z m-2597 -264 c-3 -7 -5 -2 -5 12 0 14
2 19 5 13 2 -7 2 -19 0 -25z m2911 -1 c-4 -20 -1 -22 26 -19 28 3 31 1 32 -25
0 -15 1 -52 2 -80 l2 -53 80 0 c72 0 80 -2 80 -19 0 -10 8 -21 18 -23 10 -3
18 -15 19 -26 2 -21 -3 -22 -74 -22 -56 0 -80 -4 -97 -17 -18 -15 -38 -17
-109 -15 l-87 3 0 70 0 69 -205 0 -205 0 18 35 17 34 215 3 215 3 25 52 c27
57 35 65 28 30z m-2921 -69 c-3 -7 -5 -2 -5 12 0 14 2 19 5 13 2 -7 2 -19 0
-25z m-845 -58 l157 0 3 -52 c2 -29 -1 -62 -6 -74 -10 -20 -49 -44 -73 -44 -7
0 -13 -4 -13 -10 0 -5 5 -10 10 -10 6 0 10 -7 10 -15 0 -8 5 -15 10 -15 6 0
10 -4 10 -10 0 -5 -20 -10 -45 -10 l-45 0 -1 -102 c0 -98 -5 -147 -13 -156 -3
-2 -47 29 -100 68 -86 65 -100 72 -132 68 l-37 -4 6 199 c5 177 7 200 24 212
16 12 22 10 48 -16 l31 -29 156 0z m786 33 c-26 -2 -71 -2 -100 0 -29 2 -8 3
47 3 55 0 79 -1 53 -3z m2 -53 c0 -5 -22 -10 -50 -10 -27 0 -50 4 -50 8 0 5
23 9 50 11 30 1 50 -2 50 -9z m3345 0 c4 -7 -3 -8 -22 -4 -38 9 -42 14 -10 14
14 0 29 -5 32 -10z m95 -16 c0 -2 -11 -4 -25 -4 -14 0 -25 4 -25 9 0 4 11 6
25 3 14 -2 25 -6 25 -8z m1694 -35 c15 -77 12 -83 -66 -115 l-73 -29 -332 -5
c-314 -5 -332 -4 -327 13 4 12 0 17 -15 17 -14 0 -19 5 -15 15 7 17 -6 19 -55
9 -35 -7 -41 -29 -11 -39 28 -9 25 -23 -4 -18 -13 3 -41 -4 -63 -16 l-40 -20
5 25 c2 13 8 24 13 24 5 0 9 7 9 15 0 8 -5 15 -11 15 -5 0 -8 4 -4 9 3 5 -5
11 -17 13 -13 2 -27 13 -33 26 -11 25 -25 29 -25 8 0 -24 -30 -47 -52 -40 -14
4 -18 2 -14 -5 4 -6 2 -11 -3 -11 -6 0 -11 -7 -11 -15 0 -8 6 -15 13 -15 19 0
36 -20 30 -36 -2 -7 -11 -10 -19 -7 -19 7 -18 -15 2 -35 14 -13 14 -17 3 -21
-8 -2 -18 -10 -22 -17 -12 -21 -26 -17 -33 11 -9 37 -27 30 -22 -9 2 -19 0
-32 -4 -30 -4 3 -8 15 -8 28 0 22 -17 46 -32 46 -10 0 2 -61 15 -77 6 -9 4
-15 -7 -19 -13 -5 -16 -21 -16 -75 0 -67 -12 -91 -24 -46 -3 12 -6 107 -6 211
l-2 189 94 -2 c87 -1 96 1 143 28 l50 30 491 0 492 1 6 -31z m-5066 -7 c2 -7
-6 -12 -17 -12 -21 0 -27 11 -14 24 9 9 26 2 31 -12z m-148 -22 c0 -5 -13 -10
-30 -10 -16 0 -33 0 -37 -1 -4 0 -9 4 -11 10 -2 7 12 11 37 11 23 0 41 -4 41
-10z m3624 -54 c3 -32 6 -82 6 -111 0 -35 5 -57 15 -65 8 -7 15 -19 15 -26 0
-22 -31 -16 -37 6 -7 27 -17 25 -31 -5 -12 -25 -26 -32 -36 -16 -3 5 -11 64
-17 132 -6 68 -15 129 -19 134 -5 6 11 10 45 10 l53 0 6 -59z m-1146 34 c-7
-10 -14 -17 -17 -15 -4 4 18 35 25 35 2 0 -1 -9 -8 -20z m-3010 -14 c-7 -8
-15 -12 -17 -11 -5 6 10 25 20 25 5 0 4 -6 -3 -14z m583 -21 c0 -5 -12 -11
-26 -13 -18 -2 -25 1 -25 13 0 12 7 15 25 13 14 -2 26 -7 26 -13z m94 -5 c0
-22 -29 -18 -33 3 -3 14 1 18 15 15 10 -2 18 -10 18 -18z m2240 -10 c67 -3 95
-12 95 -31 0 -5 -9 -9 -20 -9 -11 0 -20 -4 -20 -10 0 -5 11 -10 25 -10 24 0
25 -3 25 -56 0 -60 0 -60 -55 -39 -11 5 -17 5 -13 1 3 -4 64 -29 135 -56 l128
-48 3 -114 c1 -62 6 -122 12 -133 17 -35 30 -168 18 -182 -8 -11 20 -13 149
-13 145 0 160 -2 160 -17 0 -10 -5 -22 -11 -26 -8 -6 -7 -10 2 -14 25 -10 11
-19 -24 -15 -24 3 -40 0 -46 -9 -7 -11 -11 -11 -15 -1 -2 6 -12 12 -20 12 -14
0 -14 -2 0 -18 26 -28 22 -52 -8 -50 -28 3 -31 8 -13 26 9 9 8 12 -5 12 -9 0
-17 7 -17 15 0 8 -7 15 -17 15 -15 0 -14 -2 2 -20 9 -10 15 -26 12 -35 -4 -8
-2 -15 3 -15 6 0 10 -17 10 -39 0 -30 -4 -40 -20 -44 -22 -6 -26 -32 -11 -84
7 -24 6 -33 -5 -37 -7 -3 -11 -12 -8 -21 5 -11 -1 -15 -21 -15 -15 0 -24 -4
-20 -10 3 -6 -1 -7 -9 -4 -9 3 -16 11 -16 18 0 6 -4 5 -9 -4 -12 -18 -5 -30
20 -30 10 0 19 -6 19 -14 0 -23 -22 -31 -35 -13 -17 23 -25 21 -25 -5 0 -13
-5 -30 -10 -38 -8 -12 -10 -10 -11 10 -1 21 -2 21 -6 5 -3 -11 -12 -25 -20
-32 -10 -7 -13 -19 -9 -30 7 -17 6 -17 -9 -2 -9 9 -18 25 -20 35 -6 30 -6 30
-15 9 -6 -15 -2 -24 13 -36 23 -19 15 -39 -15 -39 -15 0 -18 -3 -11 -12 16
-20 23 -48 13 -48 -5 0 -11 10 -13 23 -2 12 -5 -47 -6 -130 0 -95 -5 -153 -11
-153 -6 0 -10 80 -10 220 l0 220 -220 0 -220 0 0 223 0 223 50 -2 51 -1 -2 62
c-2 51 2 67 19 85 l21 23 -5 -39 c-4 -36 -4 -37 7 -14 7 14 11 36 10 51 -2 22
4 27 52 42 62 20 70 21 62 7 -3 -5 -1 -18 4 -27 9 -15 10 -13 11 14 0 23 -5
33 -20 38 -13 4 -20 15 -20 30 0 23 -3 24 -47 20 -27 -3 -59 -8 -73 -11 -20
-4 -22 -3 -13 7 7 7 25 14 40 16 50 5 53 6 53 19 0 10 -7 10 -33 -1 -18 -7
-39 -10 -46 -6 -12 8 -23 63 -22 115 1 39 -16 66 -39 66 -13 0 -20 7 -20 19 0
11 -12 28 -27 39 l-26 19 42 7 c23 3 48 3 54 0 7 -4 8 -3 4 2 -5 5 10 14 35
21 l43 12 -55 -6 c-30 -4 -85 -14 -122 -23 l-68 -17 0 66 0 66 118 -1 c64 0
149 -2 187 -4z m-2415 -15 c0 -8 -7 -15 -15 -15 -16 0 -20 12 -8 23 11 12 23
8 23 -8z m390 -117 l0 -120 -220 3 -220 4 1 110 c1 72 4 100 9 80 4 -16 8 -47
9 -67 1 -36 3 -38 34 -38 24 0 28 3 17 10 -13 9 -13 11 0 20 13 8 12 10 -2 10
-10 0 -18 2 -18 4 0 2 -3 11 -6 20 -5 14 3 16 55 16 54 0 61 2 61 20 0 14 7
20 24 20 19 0 23 -4 19 -20 -3 -11 0 -20 6 -20 6 0 11 16 11 35 l0 34 103 3
c56 2 105 2 110 0 4 -2 7 -57 7 -124z m2203 125 c-13 -2 -33 -2 -45 0 -13 2
-3 4 22 4 25 0 35 -2 23 -4z m1617 -30 c0 -20 -27 -28 -45 -13 -14 11 -14 15
1 31 13 14 20 16 31 8 7 -6 13 -18 13 -26z m-3361 -220 l1 -63 -150 0 -150 0
0 80 0 80 35 0 c22 0 44 8 57 20 12 11 30 21 40 21 27 2 32 3 46 13 7 4 16 6
18 3 3 -3 21 1 39 9 30 12 34 12 38 -4 4 -13 5 -11 6 6 1 20 -4 22 -44 22 -25
0 -45 -5 -45 -10 0 -16 -122 -8 -127 7 -3 9 25 13 109 15 l113 3 6 -70 c4 -38
7 -98 8 -132z m1726 187 c3 -5 1 -10 -4 -10 -6 0 -11 5 -11 10 0 6 2 10 4 10
3 0 8 -4 11 -10z m-1084 -71 c11 -11 18 -23 14 -27 -9 -10 -115 -19 -115 -10
0 4 12 8 26 8 14 0 32 6 40 14 16 16 19 30 5 21 -5 -3 -12 -1 -16 5 -12 19 25
10 46 -11z m599 -3 c0 -2 -7 -6 -15 -10 -8 -3 -15 -1 -15 4 0 6 7 10 15 10 8
0 15 -2 15 -4z m-8 -76 c3 -16 1 -30 -4 -30 -4 0 -8 14 -8 30 0 17 2 30 4 30
2 0 6 -13 8 -30z m966 6 c27 -24 28 -63 3 -93 -25 -30 -56 -29 -86 2 -31 30
-32 59 -2 89 26 28 54 29 85 2z m-1825 -3 c-7 -2 -19 -2 -25 0 -7 3 -2 5 12 5
14 0 19 -2 13 -5z m2433 -32 c-9 -14 -33 -14 -41 -1 -4 6 -1 18 6 26 11 13 14
13 27 0 8 -8 11 -19 8 -25z m-1402 17 c-3 -4 -9 -8 -15 -8 -5 0 -9 4 -9 8 0 5
7 9 15 9 8 0 12 -4 9 -9z m-676 -26 c2 -7 -3 -12 -12 -12 -9 0 -16 7 -16 16 0
17 22 14 28 -4z m572 -7 c0 -18 -5 -25 -19 -25 -12 0 -20 9 -23 25 -4 21 -1
25 18 25 19 0 24 -5 24 -25z m113 8 c-7 -2 -19 -2 -25 0 -7 3 -2 5 12 5 14 0
19 -2 13 -5z m1337 -21 c0 -15 -2 -15 -10 -2 -13 20 -13 33 0 25 6 -3 10 -14
10 -23z m-2172 1 c-5 -25 -28 -28 -28 -4 0 12 6 21 16 21 9 0 14 -7 12 -17z
m82 13 c0 -2 -11 -6 -25 -8 -14 -3 -25 -1 -25 3 0 5 11 9 25 9 14 0 25 -2 25
-4z m-510 -46 c0 -5 -2 -10 -4 -10 -3 0 -8 5 -11 10 -3 6 -1 10 4 10 6 0 11
-4 11 -10z m1107 4 c-3 -3 -12 -4 -19 -1 -8 3 -5 6 6 6 11 1 17 -2 13 -5z
m1571 -3 c10 -6 10 -10 -3 -21 -18 -15 -42 0 -31 19 8 13 16 14 34 2z m-3840
-23 c2 -12 -3 -18 -13 -18 -11 0 -15 -5 -12 -14 8 -20 -21 -28 -31 -9 -6 11
-18 14 -36 11 -20 -4 -26 -1 -26 12 0 13 -7 16 -30 12 -21 -3 -30 -10 -30 -22
0 -10 -6 -20 -12 -23 -10 -3 -10 -7 0 -19 7 -9 10 -27 6 -48 l-7 -32 42 4 c29
2 41 0 41 -9 0 -9 -8 -11 -25 -7 -22 5 -25 3 -24 -17 1 -13 5 -35 10 -49 7
-20 8 -17 4 15 -3 29 -2 34 4 19 5 -11 11 -33 13 -49 2 -24 -1 -30 -24 -36
-30 -8 -29 -11 -48 156 -7 55 -14 103 -17 108 -2 4 -23 8 -46 8 -35 1 -29 4
33 14 41 7 109 12 150 11 63 -1 75 -4 78 -18z m19 -115 c-9 -10 -12 -1 -11 40
2 74 5 79 15 22 6 -36 5 -53 -4 -62z m-154 50 c-7 -2 -19 -2 -25 0 -7 3 -2 5
12 5 14 0 19 -2 13 -5z m57 -17 c0 -8 -7 -16 -15 -20 -10 -4 -15 1 -15 14 0
11 7 20 15 20 8 0 15 -6 15 -14z m-2387 -88 c-3 -46 -10 -84 -15 -86 -4 -2 -8
-12 -8 -23 0 -12 -5 -16 -15 -13 -12 5 -15 -3 -15 -40 0 -33 -4 -46 -14 -46
-10 0 -17 -17 -21 -55 -10 -74 -31 -74 -27 0 3 36 8 55 17 55 8 0 15 22 19 60
7 64 4 80 -20 80 -10 0 -14 -12 -14 -45 0 -33 -4 -45 -15 -45 -13 0 -19 -22
-18 -67 1 -7 -6 -13 -14 -13 -12 0 -14 16 -12 87 3 73 1 88 -12 91 -13 2 -17
-10 -23 -59 -3 -34 -6 -84 -6 -110 0 -38 -4 -49 -16 -49 -13 0 -15 14 -12 88
2 53 -1 87 -7 87 -5 0 -12 13 -15 30 -6 33 -40 49 -40 18 0 -17 -10 -18 -157
-15 -87 2 -160 5 -162 7 -2 2 0 36 4 74 l7 71 309 0 308 0 -6 -82z m2394 46
c-3 -3 -12 -4 -19 -1 -8 3 -5 6 6 6 11 1 17 -2 13 -5z m63 -8 c0 -2 -7 -9 -15
-16 -12 -10 -15 -10 -15 4 0 9 7 16 15 16 8 0 15 -2 15 -4z m45 -46 c-5 -8
-11 -8 -17 -2 -6 6 -7 16 -3 22 5 8 11 8 17 2 6 -6 7 -16 3 -22z m2885 20 c0
-5 -4 -10 -10 -10 -5 0 -10 5 -10 10 0 6 5 10 10 10 6 0 10 -4 10 -10z m-2917
-49 c4 -29 2 -40 -4 -30 -8 13 -14 88 -5 78 2 -2 6 -24 9 -48z m287 39 c0 -5
-11 -10 -25 -10 -14 0 -25 5 -25 10 0 6 11 10 25 10 14 0 25 -4 25 -10z m209
4 c33 -4 61 -10 61 -14 0 -3 -13 -5 -30 -2 -16 2 -30 2 -30 -1 0 -2 14 -7 31
-9 24 -4 33 0 39 16 6 13 9 -27 9 -106 l1 -128 -210 0 -210 0 0 113 c0 72 4
107 9 97 6 -8 7 -18 4 -24 -4 -6 1 -6 13 -2 10 4 30 10 44 12 14 3 37 11 53
19 19 9 26 10 21 2 -3 -7 2 -3 10 7 9 11 16 14 16 8 0 -9 24 -11 83 -10 l82 2
-77 3 c-43 2 -78 8 -78 13 0 11 70 13 159 4z m-279 -18 c0 -15 -24 -28 -34
-19 -13 14 -5 33 14 33 11 0 20 -6 20 -14z m4236 -40 c19 -20 18 -66 -1 -66
-8 0 -15 -4 -15 -10 0 -18 -26 -10 -50 15 l-23 25 23 25 c27 28 45 31 66 11z
m103 -3 c10 -10 21 -28 24 -40 4 -19 1 -23 -17 -23 -30 0 -66 32 -66 59 0 26
33 29 59 4z m-4599 -17 c0 -7 -11 -16 -25 -18 -16 -4 -25 -1 -25 8 0 7 10 15
23 17 12 2 23 5 25 6 1 0 2 -5 2 -13z m48 -180 c1 6 30 12 71 13 l70 2 3 -118
c2 -82 -1 -123 -9 -133 -14 -18 -43 -85 -43 -99 0 -5 9 -13 21 -16 11 -4 18
-12 16 -18 -2 -7 3 -18 12 -25 14 -12 14 -13 -4 -9 -11 3 -28 8 -37 12 -17 7
-18 -3 -18 -116 0 -68 -3 -162 -7 -208 l-6 -84 24 6 c14 4 50 9 81 13 53 6 56
5 63 -17 15 -45 14 -89 -1 -89 -8 0 -14 -10 -14 -26 0 -22 3 -25 23 -21 18 5
22 2 22 -16 1 -12 4 -41 8 -64 5 -32 3 -45 -10 -58 -10 -11 -20 -47 -26 -107
-10 -80 -13 -91 -35 -101 -21 -10 -23 -16 -21 -66 l3 -56 -73 -12 c-40 -7 -75
-13 -76 -15 -1 -2 5 -27 15 -56 20 -60 23 -57 -63 -70 l-57 -9 -11 41 c-5 23
-14 54 -19 70 -6 16 -10 33 -10 37 0 8 37 17 98 23 18 1 37 7 42 12 6 6 -22 6
-75 -1 -76 -9 -88 -13 -119 -44 -20 -19 -37 -33 -39 -30 -2 2 -12 36 -21 74
-10 39 -20 79 -23 90 -4 14 7 7 37 -22 24 -24 47 -43 53 -43 5 0 7 -10 4 -21
-4 -15 -3 -19 5 -11 12 12 1 55 -13 47 -5 -4 -9 -3 -9 2 0 4 -68 67 -150 138
l-151 130 5 40 c3 22 5 93 5 158 l1 117 39 0 c22 0 42 4 45 8 3 4 6 73 7 153
1 79 4 159 7 177 l5 32 187 0 c217 0 200 -10 189 115 l-5 70 -4 -60 c-3 -47
-4 -52 -7 -22 -3 30 -8 37 -25 37 -20 0 -20 1 -4 19 11 12 14 21 7 26 -13 7
-14 126 -3 270 l7 100 6 -90 c3 -49 6 -85 7 -79z m122 160 c0 -3 -4 -8 -10
-11 -5 -3 -10 -1 -10 4 0 6 5 11 10 11 6 0 10 -2 10 -4z m3547 -22 c-3 -3 -12
-4 -19 -1 -8 3 -5 6 6 6 11 1 17 -2 13 -5z m50 0 c-3 -3 -12 -4 -19 -1 -8 3
-5 6 6 6 11 1 17 -2 13 -5z m-6197 -42 c0 -10 -5 -45 -11 -78 -7 -32 -12 -65
-12 -71 0 -7 -6 -13 -14 -13 -9 0 -13 15 -13 50 0 38 4 50 15 50 11 0 15 11
15 40 0 22 5 40 10 40 6 0 10 -8 10 -18z m6980 3 c7 -9 10 -25 6 -41 -5 -20
-12 -25 -33 -22 -38 4 -51 30 -27 56 23 25 38 27 54 7z m-6760 -70 c0 -8 7
-15 15 -15 8 0 15 -7 15 -15 0 -8 7 -15 15 -15 11 0 15 -12 15 -46 0 -37 -4
-47 -20 -51 -11 -3 -20 -12 -20 -19 0 -8 -6 -14 -14 -14 -7 0 -16 -8 -18 -18
-4 -13 -13 -18 -29 -16 -13 1 -32 3 -41 3 -10 1 -18 8 -18 16 0 8 -7 15 -15
15 -8 0 -15 7 -15 15 0 8 -7 15 -15 15 -11 0 -15 12 -15 46 0 37 4 47 20 51
11 3 20 12 20 19 0 8 7 14 15 14 8 0 15 7 15 15 0 11 12 15 45 15 33 0 45 -4
45 -15z m1893 -42 c-4 -10 -15 -25 -25 -34 -10 -9 -18 -21 -18 -28 0 -6 -7
-11 -15 -11 -8 0 -15 7 -15 15 0 8 -5 15 -10 15 -6 0 -13 -7 -16 -15 -9 -24
-24 -17 -24 10 0 16 -6 25 -15 25 -8 0 -15 -4 -15 -10 0 -20 -19 -9 -22 13 -2
12 -10 22 -18 22 -11 0 -14 -10 -13 -37 3 -38 -12 -52 -23 -23 -4 8 -17 15
-31 15 -17 0 -23 4 -20 14 4 10 0 12 -14 9 -10 -3 -19 -9 -19 -14 0 -5 -4 -9
-10 -9 -5 0 -8 13 -7 30 l2 30 167 0 c155 0 167 -1 161 -17z m107 -3 c0 -5 -5
-10 -11 -10 -5 0 -7 5 -4 10 3 6 8 10 11 10 2 0 4 -4 4 -10z m4812 -24 c16
-12 16 -14 -5 -34 -27 -26 -34 -27 -53 -8 -17 18 -17 23 -1 41 15 18 37 18 59
1z m-7212 -11 c0 -8 -7 -15 -15 -15 -8 0 -15 7 -15 15 0 8 7 15 15 15 8 0 15
-7 15 -15z m4113 -58 c2 -26 4 -47 3 -45 0 2 -23 27 -51 56 -36 38 -44 52 -32
52 10 0 16 -4 13 -9 -3 -4 6 -19 19 -31 l25 -23 0 39 c1 52 16 26 23 -39z
m1720 66 c-7 -2 -19 -2 -25 0 -7 3 -2 5 12 5 14 0 19 -2 13 -5z m164 -15 c-3
-8 -6 -5 -6 6 -1 11 2 17 5 13 3 -3 4 -12 1 -19z m-2100 -30 c-7 -25 157 -182
183 -175 18 5 20 0 20 -53 0 -33 -5 -62 -11 -65 -5 -4 -8 -12 -6 -18 2 -7 -2
-32 -8 -57 -7 -25 -15 -66 -19 -92 -5 -43 -3 -47 16 -50 20 -3 23 -10 25 -73
2 -38 5 -76 8 -82 6 -17 -5 -16 -25 2 -14 13 -23 8 -85 -41 -89 -71 -96 -78
-66 -69 22 7 23 5 18 -26 -3 -19 -12 -71 -18 -117 l-13 -82 -55 -16 c-82 -22
-90 -27 -61 -31 72 -10 70 -7 70 -83 0 -38 -4 -71 -9 -74 -14 -9 -41 4 -41 20
0 7 -11 16 -25 20 -16 4 -25 13 -25 25 0 10 -3 19 -7 19 -5 0 -73 11 -153 24
-80 13 -146 20 -148 16 -1 -4 -10 -16 -18 -26 -14 -18 -14 -18 -4 4 7 13 10
26 7 28 -2 3 -46 8 -98 13 l-94 8 75 4 c41 1 85 3 98 3 32 0 27 26 -5 27 l-28
1 25 7 c17 5 24 13 23 27 -1 10 -5 58 -8 107 -4 48 -10 87 -15 87 -4 0 -22 -3
-39 -6 l-31 -6 0 -106 c0 -58 -2 -103 -4 -101 -4 4 -15 126 -16 172 0 28 -1
29 -42 23 -63 -8 -35 1 65 23 l87 19 5 -21 c3 -12 9 -76 14 -142 7 -110 8
-113 10 -42 1 71 3 77 22 77 11 0 18 -3 16 -7 -3 -5 32 -4 76 0 45 4 107 10
137 11 41 3 56 8 58 20 2 9 8 14 13 11 5 -4 9 4 9 17 0 18 8 27 35 37 32 11
35 16 35 51 0 45 26 36 -237 76 -101 15 -183 31 -183 36 0 11 5 11 202 -12
259 -31 236 -22 231 -83 -4 -62 -1 -56 57 103 21 58 41 114 46 124 6 16 4 18
-10 13 -15 -6 -17 -3 -12 21 3 15 15 79 27 141 l21 115 -20 16 c-12 10 -90 30
-184 49 -89 17 -176 34 -192 37 l-28 6 23 12 c25 13 43 11 21 -3 -7 -4 21 -12
64 -19 43 -7 78 -11 80 -10 1 2 4 37 5 78 l3 75 59 0 c49 0 57 -2 54 -17z
m1973 -105 c0 -65 2 -136 5 -158 5 -37 3 -36 -12 5 -3 8 -5 34 -3 58 1 37 -1
43 -16 40 -11 -2 -20 4 -22 15 -2 12 3 17 18 17 20 0 21 4 18 70 -2 39 0 70 5
70 4 0 7 -53 7 -117z m-3600 87 c0 -5 -4 -10 -10 -10 -5 0 -10 5 -10 10 0 6 5
10 10 10 6 0 10 -4 10 -10z m130 -10 c0 -5 -4 -10 -10 -10 -5 0 -10 5 -10 10
0 6 5 10 10 10 6 0 10 -4 10 -10z m-320 -40 c0 -5 -4 -10 -10 -10 -5 0 -10 5
-10 10 0 6 5 10 10 10 6 0 10 -4 10 -10z m536 -46 c-3 -26 -6 -53 -6 -61 0
-10 -17 -13 -71 -12 l-71 2 6 44 c5 36 3 43 -7 35 -13 -11 -127 -21 -127 -12
0 19 31 30 82 30 32 0 58 4 58 10 0 6 30 10 71 10 l72 0 -7 -46z m5914 29 c0
-10 -5 -25 -10 -33 -8 -11 -10 -7 -8 18 2 33 18 46 18 15z m-1057 -10 c-7 -2
-19 -2 -25 0 -7 3 -2 5 12 5 14 0 19 -2 13 -5z m54 1 c-3 -3 -12 -4 -19 -1 -8
3 -5 6 6 6 11 1 17 -2 13 -5z m928 -74 l-15 -45 6 44 c5 46 15 72 21 55 2 -5
-4 -29 -12 -54z m-55 3 c0 -13 -4 -23 -9 -23 -5 0 -16 -3 -25 -6 -13 -5 -16 1
-16 29 0 26 5 37 18 39 21 5 32 -9 32 -39z m-8840 3 c0 -20 -11 -46 -19 -46
-4 0 -6 14 -3 30 4 30 22 43 22 16z m2630 -36 c0 -5 -7 -10 -16 -10 -8 0 -12
5 -9 10 3 6 10 10 16 10 5 0 9 -4 9 -10z m718 -3 c6 0 12 -4 12 -9 0 -10 -35
-2 -60 14 -10 6 -7 7 10 2 14 -4 31 -7 38 -7z m1468 -38 c20 6 36 5 42 -1 6
-6 43 -6 98 -1 49 5 96 7 106 5 17 -3 25 -74 31 -277 l2 -90 29 -3 c32 -4 102
-47 89 -55 -4 -3 -35 -10 -68 -17 -33 -7 -55 -15 -49 -17 6 -2 41 3 79 11 l69
14 44 -31 c36 -26 45 -29 52 -17 7 11 10 11 10 2 0 -7 -13 -26 -30 -42 -16
-16 -30 -40 -30 -52 0 -13 -4 -18 -8 -12 -6 10 -42 27 -42 21 0 -2 14 -14 31
-26 18 -13 29 -19 25 -12 -10 15 5 13 27 -3 15 -12 16 -14 2 -20 -17 -6 -21
-46 -4 -46 5 0 8 4 5 8 -2 4 -1 14 5 22 6 12 9 9 9 -10 0 -27 16 -50 35 -50 6
0 27 14 45 30 18 17 37 30 42 30 4 0 8 -41 8 -90 0 -78 -3 -91 -17 -96 -10 -3
-27 -10 -38 -14 -11 -5 -41 -11 -66 -15 l-46 -6 -7 62 c-3 34 -6 87 -6 119 0
62 11 50 -142 157 -53 37 -58 39 -58 20 0 -10 -23 -14 -87 -16 -49 -1 -160 -6
-248 -10 -88 -4 -170 -5 -182 -3 -22 4 -22 6 -17 126 3 66 8 122 12 124 4 1 6
63 4 137 l-4 135 91 0 c86 0 91 1 91 21 l0 21 18 -21 c14 -18 22 -20 48 -12z
m-4101 -22 l210 -33 3 -37 c3 -34 1 -37 -22 -37 -14 0 -26 -4 -26 -10 0 -5
-10 -10 -23 -10 -20 0 -23 4 -21 33 2 17 1 24 -2 15 -6 -21 -20 -23 -28 -5 -3
6 -3 2 -1 -10 9 -36 -11 -34 -25 2 -15 38 -30 46 -31 18 0 -15 -2 -15 -9 2 -7
17 -9 17 -9 3 -1 -25 -20 -22 -31 5 -7 17 -9 18 -9 5 -1 -10 -5 -18 -11 -18
-5 0 -11 -8 -11 -17 -1 -16 -2 -16 -6 0 -5 18 -5 18 -19 0 -14 -17 -14 -16
-13 12 2 44 -1 53 -11 30 -7 -17 -9 -15 -9 13 -1 51 -21 37 -21 -15 0 -42 4
-50 28 -64 92 -56 283 -179 316 -204 91 -71 86 -65 41 -55 -22 5 -70 10 -108
10 -54 0 -75 5 -106 24 -21 13 -89 53 -152 89 -63 35 -170 96 -239 136 l-125
71 -87 0 c-72 0 -88 3 -88 15 0 9 -9 15 -22 15 -22 -1 -23 -1 -4 -15 19 -14
18 -15 -10 -15 -28 0 -29 2 -26 39 l4 38 246 1 c231 1 260 -1 457 -31z m2557
24 c-11 -7 -11 -9 2 -14 8 -3 16 -1 18 5 2 6 13 8 25 4 14 -5 20 -12 16 -22
-3 -9 -12 -12 -24 -9 -11 4 -19 2 -19 -3 0 -14 26 -22 37 -11 12 12 45 0 40
-15 -2 -6 -14 -10 -26 -9 -14 2 -20 -1 -15 -8 3 -6 16 -8 28 -5 25 6 40 -2 49
-26 3 -10 13 -18 22 -18 19 0 20 -19 0 -26 -8 -4 -15 -11 -15 -17 0 -8 3 -8
11 0 15 15 51 4 45 -14 -4 -9 2 -17 15 -20 12 -4 18 -11 15 -20 -4 -9 1 -17
14 -20 11 -3 20 -11 20 -19 0 -7 7 -17 16 -22 11 -6 14 -16 10 -29 -6 -19 -10
-20 -47 -11 -26 7 -38 15 -35 24 3 7 -4 16 -15 19 -10 4 -19 13 -19 21 0 8 -7
17 -15 20 -8 4 -15 13 -15 21 0 8 -9 17 -21 20 -11 3 -18 11 -15 19 3 7 -4 16
-15 19 -13 4 -18 12 -15 22 4 9 -1 17 -14 20 -11 3 -20 13 -20 23 0 10 -9 20
-20 23 -13 3 -18 10 -14 21 4 10 1 16 -9 16 -9 0 -19 5 -22 10 -8 13 12 40 29
40 7 0 6 -4 -2 -9z m1042 -98 c-6 -32 -5 -33 26 -33 31 0 32 -1 25 -32 -3 -18
-10 -60 -15 -93 -9 -65 -29 -167 -33 -171 -1 -1 -26 3 -55 8 l-54 11 7 58 c7
57 6 58 -20 65 -21 5 -26 11 -23 33 3 22 7 25 30 23 22 -3 28 1 34 23 7 29 -6
45 -38 45 -11 0 -18 -10 -20 -27 -3 -30 -12 -32 -80 -18 -34 6 -38 5 -44 -19
-5 -20 -12 -26 -34 -26 -30 0 -34 -6 -45 -71 l-7 -35 -52 9 -53 10 13 61 c7
34 18 98 24 143 l12 82 29 -6 c26 -5 29 -3 29 19 0 14 2 27 5 29 2 3 81 -8
175 -25 l170 -31 -6 -32z m4848 72 c3 -14 1 -25 -3 -25 -5 0 -9 11 -9 25 0 14
2 25 4 25 2 0 6 -11 8 -25z m-7724 -4 c5 -2 2 -80 -4 -95 -6 -17 -74 -24 -74
-8 0 5 14 7 30 4 25 -4 30 -1 30 17 0 12 -4 19 -10 16 -5 -3 -10 -1 -10 4 0 6
-19 11 -41 11 -39 0 -41 -1 -37 -27 4 -28 3 -28 -44 -25 -53 4 -49 9 -52 -73
l-2 -41 89 4 c53 3 87 1 84 -5 -3 -5 -46 -10 -96 -12 l-91 -2 0 123 0 123 112
-7 c62 -3 114 -7 116 -7z m1132 -36 c0 -8 -4 -15 -10 -15 -5 0 -10 7 -10 15 0
8 5 15 10 15 6 0 10 -7 10 -15z m6190 -11 c0 -8 -4 -14 -10 -14 -5 0 -10 9
-10 21 0 11 5 17 10 14 6 -3 10 -13 10 -21z m-1766 1 c3 -8 13 -15 21 -15 9 0
13 -4 10 -10 -11 -18 6 -80 24 -81 11 -1 10 -3 -4 -7 -15 -4 -8 -9 28 -21 l48
-17 -23 -19 c-17 -15 -19 -16 -9 -2 12 15 11 17 -8 17 -15 0 -21 -7 -22 -22
-2 -23 -2 -23 -6 -2 -4 21 -28 34 -65 34 -13 0 -18 -8 -19 -27 0 -25 -1 -26
-9 -8 -6 14 -9 15 -10 5 -2 -23 -18 20 -19 52 -1 15 6 33 13 41 13 13 23 45
25 85 1 17 18 15 25 -3z m2213 9 c-3 -3 -12 -4 -19 -1 -8 3 -5 6 6 6 11 1 17
-2 13 -5z m-2756 -36 c-11 -18 -30 -35 -43 -38 -13 -3 -23 -12 -23 -20 0 -21
-29 -19 -33 3 -2 10 5 20 19 25 17 7 19 11 9 17 -8 5 -18 2 -26 -9 -10 -14
-17 -15 -31 -7 -12 7 -13 10 -4 11 9 0 12 8 9 25 -5 25 -5 25 69 25 l75 0 -21
-32z m2784 12 c3 -5 1 -10 -4 -10 -6 0 -11 5 -11 10 0 6 2 10 4 10 3 0 8 -4
11 -10z m35 -61 c0 -37 -4 -49 -15 -49 -20 0 -19 -17 2 -29 13 -7 19 -27 23
-74 l5 -65 -55 -4 c-30 -2 -55 -4 -56 -3 -8 3 -10 75 -3 75 14 0 39 26 39 39
0 11 -13 15 -37 12 -9 -1 -13 14 -13 46 0 26 -3 58 -6 71 -6 20 -3 22 30 22
22 0 35 -4 31 -10 -3 -5 3 -10 14 -10 15 0 21 6 21 21 0 11 5 17 10 14 6 -3
10 -28 10 -56z m-8500 21 c0 -5 -4 -10 -10 -10 -5 0 -10 5 -10 10 0 6 5 10 10
10 6 0 10 -4 10 -10z m5257 -22 c-3 -7 -5 -2 -5 12 0 14 2 19 5 13 2 -7 2 -19
0 -25z m40 26 c-3 -3 -12 -4 -19 -1 -8 3 -5 6 6 6 11 1 17 -2 13 -5z m90 0
c-3 -3 -12 -4 -19 -1 -8 3 -5 6 6 6 11 1 17 -2 13 -5z m-4827 -30 c0 -2 -7 -4
-15 -4 -8 0 -15 4 -15 10 0 5 7 7 15 4 8 -4 15 -8 15 -10z m17 -6 c-3 -8 -6
-5 -6 6 -1 11 2 17 5 13 3 -3 4 -12 1 -19z m4095 2 c18 -11 42 -20 53 -20 14
0 16 -3 8 -11 -8 -8 -24 -4 -57 16 -42 24 -54 35 -41 35 2 0 19 -9 37 -20z
m675 -17 c-3 -10 -5 -4 -5 12 0 17 2 24 5 18 2 -7 2 -21 0 -30z m183 27 c0 -5
-5 -10 -11 -10 -5 0 -7 5 -4 10 3 6 8 10 11 10 2 0 4 -4 4 -10z m-7348 -50
c19 0 20 -4 14 -52 -3 -29 -6 -65 -6 -80 0 -27 -2 -28 -50 -28 -44 0 -50 -3
-50 -21 0 -18 -5 -20 -42 -17 -35 2 -43 7 -43 23 0 13 -7 20 -20 20 -15 0 -19
6 -17 23 3 18 -1 22 -24 22 -22 0 -25 3 -20 23 3 12 6 28 6 35 0 6 9 12 21 12
12 0 23 8 26 20 3 11 14 20 23 20 10 0 21 9 25 20 5 16 17 20 68 22 58 3 62 1
65 -19 2 -16 10 -23 24 -23z m251 20 c-4 -16 0 -20 22 -20 22 0 25 -3 20 -20
-5 -17 -2 -20 21 -20 25 0 26 -2 20 -37 -3 -21 -6 -48 -6 -60 0 -22 -4 -23
-70 -23 -63 0 -70 2 -70 20 0 13 -7 20 -20 20 -13 0 -20 7 -20 20 0 13 -7 20
-20 20 -22 0 -26 28 -14 88 6 30 8 31 68 34 74 4 75 3 69 -22z m1714 -77 c-2
-21 -4 -4 -4 37 0 41 2 58 4 38 2 -21 2 -55 0 -75z m4561 -5 c6 -6 12 -23 12
-39 0 -18 8 -34 20 -41 12 -8 20 -24 20 -39 0 -15 10 -34 25 -47 16 -14 25
-32 25 -52 0 -18 7 -33 18 -39 16 -9 20 -28 26 -152 3 -78 4 -144 1 -147 -2
-3 -11 1 -20 8 -12 10 -15 36 -15 125 0 109 -1 113 -25 129 -17 11 -25 26 -25
46 0 19 -7 33 -20 40 -13 7 -20 21 -20 39 0 16 -10 37 -25 51 -15 14 -25 35
-25 51 0 23 -11 33 -74 69 -69 40 -85 58 -86 97 0 10 152 -70 188 -99z m731
68 c-14 -15 -22 0 -13 26 7 22 7 22 14 3 4 -11 4 -24 -1 -29z m-5319 18 c0 -8
-5 -12 -10 -9 -6 4 -8 11 -5 16 9 14 15 11 15 -7z m534 -8 c-7 -17 -64 -23
-64 -6 0 6 14 10 30 10 17 0 30 5 30 12 0 6 2 9 5 6 3 -3 3 -13 -1 -22z m1006
8 c0 -8 -4 -12 -10 -9 -5 3 -10 10 -10 16 0 5 5 9 10 9 6 0 10 -7 10 -16z
m5500 0 c0 -2 -9 -4 -21 -4 -11 0 -18 4 -14 10 5 8 35 3 35 -6z m68 9 c-10 -2
-26 -2 -35 0 -10 3 -2 5 17 5 19 0 27 -2 18 -5z m-6708 -16 c0 -9 -10 -12 -30
-9 -16 2 -30 8 -30 13 0 5 14 9 30 9 18 0 30 -5 30 -13z m4000 -37 c0 -15 -5
-12 -26 11 -19 22 -19 22 4 10 12 -6 22 -16 22 -21z m-763 -27 c-3 -10 -5 -2
-5 17 0 19 2 27 5 18 2 -10 2 -26 0 -35z m-3730 15 c-3 -8 -6 -5 -6 6 -1 11 2
17 5 13 3 -3 4 -12 1 -19z m3013 12 c-20 -13 -4 -13 21 0 22 13 22 15 9 -83
-10 -66 -8 -81 9 -127 22 -58 22 -58 -57 13 -29 26 -49 37 -60 32 -23 -9 -275
-75 -286 -75 -24 0 23 32 65 44 26 8 63 22 81 30 18 9 42 17 53 19 11 2 29 8
40 14 11 6 25 8 32 6 11 -4 53 51 53 70 0 4 -15 14 -32 22 l-33 13 38 7 c20 4
40 11 43 16 3 5 13 9 22 9 15 0 15 -2 2 -10z m2167 4 c-3 -3 -12 -4 -19 -1 -8
3 -5 6 6 6 11 1 17 -2 13 -5z m43 -38 c-24 -11 -35 -3 -26 19 5 13 9 13 26 3
l20 -13 -20 -9z m-2334 9 c-17 -17 -32 -19 -41 -5 -3 5 0 7 8 4 8 -3 18 -1 22
5 3 6 11 11 16 11 6 0 4 -7 -5 -15z m2261 -7 c-3 -8 -6 -5 -6 6 -1 11 2 17 5
13 3 -3 4 -12 1 -19z m-3437 2 c0 -5 -4 -10 -10 -10 -5 0 -10 5 -10 10 0 6 5
10 10 10 6 0 10 -4 10 -10z m1111 -4 c5 3 9 0 9 -5 0 -6 -7 -11 -15 -11 -8 0
-15 8 -14 18 0 10 3 12 6 4 2 -6 9 -10 14 -6z m-2005 -18 c3 -4 -3 -16 -14
-28 -20 -21 -20 -22 -31 -2 -16 29 21 54 45 30z m2470 -6 c-2 -4 14 -6 36 -3
39 3 41 2 35 -20 -4 -13 -7 -27 -7 -31 0 -4 -12 -3 -26 2 -14 6 -36 10 -50 10
-19 0 -24 5 -24 25 0 19 5 25 21 25 11 0 18 -3 15 -8z m1254 -29 c0 -7 -39 17
-46 28 -3 6 5 3 20 -6 14 -10 26 -19 26 -22z m-4097 20 c-7 -2 -19 -2 -25 0
-7 3 -2 5 12 5 14 0 19 -2 13 -5z m157 3 c0 -3 -4 -8 -10 -11 -5 -3 -10 -1
-10 4 0 6 5 11 10 11 6 0 10 -2 10 -4z m776 -11 c10 -10 14 -29 12 -57 -2 -35
-6 -42 -21 -40 -9 2 -20 -4 -23 -13 -3 -8 -12 -15 -20 -15 -17 0 -55 36 -46
44 3 3 -2 6 -11 6 -48 0 17 88 66 89 16 1 35 -6 43 -14z m144 -10 c7 -14 17
-25 22 -25 4 0 8 -13 8 -30 0 -27 -3 -30 -30 -30 -41 0 -80 39 -80 80 0 27 3
30 33 30 26 0 37 -6 47 -25z m3323 -17 c21 -11 21 -11 2 -19 -18 -7 -18 -8 -2
-8 24 -1 19 -44 -5 -49 -14 -3 -18 3 -18 26 0 19 -8 35 -22 45 l-23 16 23 0
c13 1 33 -4 45 -11z m-5493 -6 c0 -4 -18 -8 -40 -8 -22 -1 -40 2 -40 7 0 5 18
9 40 9 22 0 40 -3 40 -8z m5298 -57 c-3 -3 -9 2 -12 12 -6 14 -5 15 5 6 7 -7
10 -15 7 -18z m-5414 0 c-4 -8 -8 -15 -10 -15 -2 0 -4 7 -4 15 0 8 4 15 10 15
5 0 7 -7 4 -15z m160 0 c-4 -8 -10 -15 -15 -15 -4 0 -6 7 -3 15 4 8 10 15 15
15 4 0 6 -7 3 -15z m1245 -31 c12 -20 20 -39 17 -41 -2 -3 -14 13 -26 36 -25
51 -20 54 9 5z m142 -1 c-12 -20 -14 -14 -5 12 4 9 9 14 11 11 3 -2 0 -13 -6
-23z m-2538 -3 c-4 -16 0 -20 22 -20 21 0 26 -4 21 -16 -3 -9 -6 -36 -6 -60 0
-40 -2 -44 -25 -44 -18 0 -25 -5 -25 -20 0 -18 -7 -20 -69 -20 l-68 0 5 50 c4
49 4 50 -22 50 -16 0 -25 4 -21 10 3 6 15 10 26 10 12 0 19 7 19 20 0 15 7 20
25 20 18 0 25 5 25 20 0 17 7 20 49 20 44 0 49 -2 44 -20z m1078 8 c-1 -5 -1
-24 -1 -43 0 -29 -4 -35 -21 -35 -17 0 -20 4 -15 23 3 12 6 32 6 45 0 16 5 22
16 20 8 -2 15 -6 15 -10z m2115 -22 c8 -8 14 -26 14 -41 0 -15 -6 -33 -14 -41
-31 -30 -96 -9 -96 31 0 19 23 45 39 45 6 0 11 5 11 10 0 15 29 12 46 -4z
m-841 -6 c3 -5 1 -10 -4 -10 -6 0 -11 5 -11 10 0 6 2 10 4 10 3 0 8 -4 11 -10z
m3988 -10 c-3 -11 -9 -20 -15 -20 -5 0 -4 9 2 20 6 11 12 20 14 20 2 0 2 -9
-1 -20z m-3798 -20 c3 -5 -1 -10 -10 -10 -9 0 -13 5 -10 10 3 6 8 10 10 10 2
0 7 -4 10 -10z m2455 -8 c0 -9 -47 -8 -57 1 -3 4 8 7 25 7 18 0 32 -4 32 -8z
m-2582 -27 c-3 -3 -9 2 -12 12 -6 14 -5 15 5 6 7 -7 10 -15 7 -18z m162 0 c7
-8 9 -15 6 -15 -4 0 -14 7 -22 15 -9 8 -11 15 -6 15 5 0 15 -7 22 -15z m-1468
-40 c-3 -29 -9 -45 -17 -45 -8 0 -16 -10 -18 -22 -2 -13 -5 -4 -6 20 -1 45
-17 57 -24 20 -3 -14 -5 -8 -6 15 -1 26 -5 37 -13 35 -14 -5 -14 -6 -18 -70
-2 -26 -4 -34 -7 -20 -3 14 -12 22 -24 22 -11 0 -18 4 -14 9 3 5 -4 26 -16 45
l-21 36 94 0 93 0 -3 -45z m4343 -12 c5 -44 15 -66 43 -100 20 -24 44 -43 54
-43 14 0 16 -6 11 -32 -3 -18 -7 -34 -8 -36 -1 -1 -35 5 -76 13 -41 9 -91 14
-112 10 -23 -3 -36 -2 -33 4 3 5 11 44 16 87 17 129 18 130 53 142 18 5 35 10
38 11 4 1 10 -25 14 -56z m-3411 -40 c-3 -49 -9 -137 -14 -198 -8 -98 -8 -92
-3 48 5 140 3 157 -11 157 -17 0 -22 -15 -7 -24 5 -3 7 -15 4 -27 -4 -15 -8
-17 -14 -8 -4 7 -5 17 -3 21 3 4 -2 8 -10 8 -13 0 -16 -14 -18 -72 -1 -40 -3
-91 -4 -113 -1 -22 -6 -104 -10 -182 -4 -79 -10 -143 -13 -143 -6 0 3 332 13
470 3 41 5 92 6 113 l0 37 44 0 45 0 -5 -87z m493 81 c-3 -3 -12 -4 -19 -1 -8
3 -5 6 6 6 11 1 17 -2 13 -5z m993 -219 l0 -225 25 -10 c24 -9 25 -13 25 -95
0 -55 -4 -84 -10 -80 -5 3 -10 -1 -10 -10 0 -9 5 -13 10 -10 6 4 10 -17 10
-54 0 -48 -3 -61 -15 -61 -11 0 -15 12 -15 46 0 37 -3 45 -15 40 -8 -3 -15 -1
-15 4 0 6 7 10 15 10 9 0 15 9 15 24 0 17 -7 25 -23 28 -20 4 -23 1 -19 -19 5
-24 -7 -28 -42 -14 -19 7 -19 8 2 13 18 5 22 13 22 42 0 32 3 36 23 33 12 -2
17 -2 11 0 -6 2 -9 15 -6 28 3 20 0 25 -17 25 -14 0 -21 -6 -21 -20 0 -11 -4
-20 -9 -20 -5 0 -16 -3 -25 -6 -12 -4 -16 0 -16 15 0 14 -6 21 -20 21 -14 0
-20 -7 -20 -21 0 -16 -5 -20 -20 -16 -11 3 -18 1 -15 -3 3 -5 -1 -11 -7 -14
-7 -2 -2 -4 11 -3 13 1 26 -4 29 -11 3 -9 -3 -13 -19 -10 -22 3 -23 0 -20 -39
1 -26 -2 -43 -8 -43 -7 0 -11 28 -11 75 0 68 -2 75 -20 75 -17 0 -24 10 -22
31 1 3 -11 4 -26 1 -23 -5 -24 -7 -7 -10 11 -2 23 -9 26 -14 9 -15 10 -126 2
-167 -7 -31 -9 -26 -13 39 -4 53 -9 74 -17 72 -7 -1 -13 7 -13 18 0 22 -35 29
-42 8 -3 -9 -12 -8 -31 5 -30 20 -37 21 -37 7 0 -5 7 -10 15 -10 8 0 15 -7 15
-16 0 -11 6 -14 20 -9 11 4 20 2 20 -4 0 -6 8 -11 18 -11 14 0 15 -2 2 -10
-10 -6 -11 -10 -2 -10 6 0 12 -9 12 -20 0 -11 -4 -20 -10 -20 -5 0 -10 7 -10
15 0 8 -9 15 -20 15 -11 0 -21 -7 -21 -15 -1 -8 -3 -19 -4 -25 -1 -5 -3 -17
-4 -25 -2 -23 -21 -18 -21 5 0 11 -7 20 -15 20 -9 0 -15 -9 -15 -25 0 -14 6
-25 13 -25 12 0 13 -53 1 -109 -5 -23 -6 -23 -17 -5 -15 23 -11 258 4 249 5
-4 9 -1 9 4 0 6 -4 11 -10 11 -5 0 -8 10 -6 23 3 12 5 29 5 38 1 11 18 20 56
28 30 7 57 16 59 19 2 4 38 7 80 6 57 0 76 3 76 13 0 7 -4 13 -10 13 -6 0 -10
33 -10 79 0 71 -2 80 -20 86 -11 3 -20 11 -20 16 0 5 -16 9 -35 9 -38 0 -39 2
-49 93 -4 33 -2 47 7 48 9 0 9 2 0 6 -13 5 -18 65 -6 76 3 4 71 7 150 7 l143
0 0 -225z m1548 194 c-11 -6 -29 -6 -50 0 -32 9 -31 9 17 10 38 0 46 -2 33
-10z m1563 -12 c-8 -8 -16 -7 -27 5 -14 14 -14 15 11 10 19 -3 23 -8 16 -15z
m3674 -32 c25 0 35 -13 35 -47 0 -25 -4 -28 -34 -28 -40 0 -46 11 -38 76 4 39
7 44 12 24 4 -16 13 -25 25 -25z m-3816 -32 l-2 -48 -6 40 c-7 38 -5 55 5 55
2 0 3 -21 3 -47z m-631 -32 c-9 -23 -12 -39 -6 -38 6 1 12 -3 15 -9 3 -10 -69
-44 -95 -44 -7 0 -12 9 -12 20 0 23 0 23 -34 10 -16 -6 -26 -17 -26 -30 0 -16
5 -19 30 -13 26 5 30 3 30 -16 0 -17 5 -21 18 -17 9 3 36 10 60 16 33 8 42 16
43 33 1 21 1 21 8 -2 4 -14 13 -27 20 -29 10 -3 12 0 8 11 -6 16 11 27 44 27
10 0 19 5 19 10 0 6 5 10 10 10 6 0 10 -7 10 -16 0 -13 4 -11 18 7 l19 22 36
-28 c21 -15 37 -29 37 -32 0 -6 -38 16 -45 27 -17 27 -25 2 -25 -75 0 -82 -1
-85 -25 -91 -19 -5 -25 -12 -23 -26 3 -18 -16 -26 -152 -67 -144 -44 -155 -46
-158 -29 -3 16 -9 18 -33 13 -21 -5 -29 -3 -29 7 -2 59 -49 351 -58 360 -7 7
-12 16 -12 20 0 12 68 10 75 -2 4 -6 12 -7 18 -3 9 5 9 3 0 -8 -7 -9 -9 -31
-6 -58 5 -37 8 -42 27 -37 12 3 25 6 30 6 9 0 2 72 -9 103 -6 14 4 17 82 19
48 2 92 0 97 -4 6 -4 3 -24 -6 -47z m4368 -168 c15 -230 16 -263 4 -216 -4 18
-10 99 -14 180 -4 81 -9 173 -13 203 -3 30 -2 52 2 48 3 -3 13 -100 21 -215z
m-7016 142 c0 -48 -10 -55 -38 -27 -22 20 -22 32 -2 54 27 30 40 21 40 -27z
m1480 25 c0 -5 -5 -10 -11 -10 -5 0 -7 5 -4 10 3 6 8 10 11 10 2 0 4 -4 4 -10z
m1200 -4 c0 -2 -7 -9 -15 -16 -13 -11 -14 -10 -9 4 5 14 24 23 24 12z m3020
-27 c0 -21 -1 -22 -24 -13 -9 3 -13 10 -10 15 3 5 -1 6 -9 3 -17 -6 -41 -54
-27 -54 6 0 10 -4 10 -10 0 -5 -20 -10 -45 -10 l-45 0 -1 -37 c0 -22 -3 -32
-7 -23 -8 18 -42 23 -39 6 1 -6 -4 -10 -10 -8 -9 1 -13 -12 -13 -43 0 -25 -4
-45 -10 -45 -6 0 -10 30 -10 70 0 68 1 70 25 70 21 0 25 5 25 29 0 28 2 29 28
22 26 -8 28 -7 24 23 l-4 31 71 -3 c62 -3 71 -6 71 -23z m-4115 -9 c3 -5 1
-10 -4 -10 -6 0 -11 5 -11 10 0 6 2 10 4 10 3 0 8 -4 11 -10z m-1568 -197 c-2
-32 -3 -6 -3 57 0 63 1 89 3 58 2 -32 2 -84 0 -115z m412 80 c2 -1 -5 -23 -16
-49 l-20 -46 -21 62 c-26 82 -20 101 22 63 17 -15 33 -29 35 -30z m751 -66
c17 -4 20 -13 18 -64 l-2 -58 -3 58 c-3 48 -7 57 -21 55 -14 -3 -17 7 -18 62
-1 62 -1 62 3 9 3 -46 8 -58 23 -62z m-4414 57 c-3 -26 -6 -60 -6 -75 0 -16
-4 -29 -10 -29 -5 0 -10 9 -10 20 0 13 -7 20 -20 20 -16 0 -20 7 -20 35 0 31
3 35 25 35 18 0 25 5 25 20 0 11 5 20 11 20 8 0 10 -15 5 -46z m4744 29 c0 -5
-20 -9 -45 -9 -24 -1 -42 2 -39 7 6 11 84 12 84 2z m2117 -55 c-3 -7 -5 -2 -5
12 0 14 2 19 5 13 2 -7 2 -19 0 -25z m-30 -60 c-3 -8 -6 -5 -6 6 -1 11 2 17 5
13 3 -3 4 -12 1 -19z m-1996 -11 c-10 -9 -11 -8 -5 6 3 10 9 15 12 12 3 -3 0
-11 -7 -18z m3926 -24 c-3 -10 -5 -4 -5 12 0 17 2 24 5 18 2 -7 2 -21 0 -30z
m-5663 -1 c2 -4 -11 -6 -30 -4 -19 2 -34 6 -34 8 0 8 59 4 64 -4z m126 -2 c0
-6 -25 -9 -57 -8 l-58 1 55 7 c30 4 56 7 58 8 1 1 2 -2 2 -8z m3457 -16 c-3
-3 -12 -4 -19 -1 -8 3 -5 6 6 6 11 1 17 -2 13 -5z m2130 -31 c-3 -10 -5 -4 -5
12 0 17 2 24 5 18 2 -7 2 -21 0 -30z m-2739 -58 c-2 -2 -13 -6 -25 -9 -17 -6
-23 -3 -23 8 0 22 -12 20 -104 -10 -60 -20 -80 -24 -86 -14 -6 10 -26 7 -86
-14 -42 -14 -80 -24 -82 -21 -3 2 1 7 9 9 8 2 97 31 199 63 l185 59 8 -35 c4
-19 6 -35 5 -36z m199 -17 c-2 -13 -4 -3 -4 22 0 25 2 35 4 23 2 -13 2 -33 0
-45z m-1157 -60 c10 -51 16 -95 15 -96 -5 -5 -25 69 -26 93 0 18 -1 18 -9 -2
-5 -13 -12 -23 -16 -23 -3 0 -4 6 -1 14 3 8 3 17 -1 21 -4 4 -22 -24 -40 -62
-18 -37 -31 -63 -30 -57 9 32 82 213 86 210 2 -3 12 -47 22 -98z m-4633 45
c-3 -10 -5 -4 -5 12 0 17 2 24 5 18 2 -7 2 -21 0 -30z m2983 -33 c0 -20 -5
-30 -15 -30 -10 0 -15 10 -15 30 0 20 5 30 15 30 10 0 15 -10 15 -30z m1283 5
c-3 -9 -8 -14 -10 -11 -3 3 -2 9 2 15 9 16 15 13 8 -4z m-521 -65 l3 -64 -33
-7 c-38 -8 -53 11 -34 42 7 10 12 30 12 44 0 19 -5 25 -22 26 -13 0 -4 6 22
13 25 6 46 12 47 11 0 0 3 -29 5 -65z m199 22 c2 -23 0 -45 -4 -48 -4 -4 -7
17 -7 46 0 62 8 64 11 2z m219 -63 c0 -72 -3 -98 -11 -93 -8 5 -10 -4 -7 -30
2 -20 0 -36 -5 -36 -4 0 -7 59 -5 130 2 96 6 130 15 130 10 0 13 -26 13 -101z
m-120 72 c0 -10 -6 -21 -13 -24 -10 -4 -13 2 -9 19 5 28 22 32 22 5z m-1100
-42 c0 -17 -4 -28 -10 -24 -5 3 -10 17 -10 31 0 13 5 24 10 24 6 0 10 -14 10
-31z m2465 21 c3 -5 1 -10 -4 -10 -6 0 -11 5 -11 10 0 6 2 10 4 10 3 0 8 -4
11 -10z m5054 -27 c-1 -34 -2 -35 -9 -13 -11 36 -11 50 0 50 6 0 10 -17 9 -37z
m-6380 -50 c0 -38 -3 -61 -6 -53 -3 8 -9 17 -14 20 -10 7 1 100 12 100 5 0 9
-30 8 -67z m-1846 50 c-7 -2 -19 -2 -25 0 -7 3 -2 5 12 5 14 0 19 -2 13 -5z
m492 -20 c-10 -43 -20 -46 -20 -7 0 22 5 34 14 34 9 0 11 -8 6 -27z m3823 15
c-6 -18 -28 -21 -28 -4 0 9 7 16 16 16 9 0 14 -5 12 -12z m-2607 -50 c-3 -21
-6 -26 -9 -15 -3 17 3 47 11 47 2 0 1 -15 -2 -32z m6436 -35 c-3 -10 -5 -2 -5
17 0 19 2 27 5 18 2 -10 2 -26 0 -35z m-7527 33 c0 -3 -4 -8 -10 -11 -5 -3
-10 -1 -10 4 0 6 5 11 10 11 6 0 10 -2 10 -4z m1149 -18 c0 -16 -2 -18 -6 -8
-3 8 -11 18 -17 22 -7 5 -4 8 7 8 11 0 17 -7 16 -22z m-3673 -10 c-3 -13 -6
-36 -7 -53 0 -26 -2 -27 -9 -10 -10 23 -13 14 -10 -32 1 -29 -2 -33 -22 -32
-17 1 -18 3 -5 6 21 6 22 30 1 35 -14 3 -13 6 4 26 27 31 19 61 -16 57 -15 -2
-45 -1 -67 3 -35 6 -30 8 40 13 44 3 84 6 89 7 4 1 6 -8 2 -20z m2428 7 c-4
-8 -7 -15 -9 -15 -2 0 -5 7 -9 15 -3 9 0 15 9 15 9 0 12 -6 9 -15z m-1287 -17
c-3 -8 -6 -5 -6 6 -1 11 2 17 5 13 3 -3 4 -12 1 -19z m1809 -22 c38 -38 41
-46 19 -46 -8 0 -15 -6 -15 -14 0 -21 -81 -17 -102 5 -10 10 -18 21 -18 24 0
10 28 35 39 35 6 0 11 7 11 15 0 25 30 17 66 -19z m1021 3 l91 -32 -20 -46
c-10 -25 -21 -47 -22 -49 -6 -5 -186 69 -192 79 -3 5 -1 9 5 9 5 0 15 16 21
35 6 19 15 35 18 35 4 0 48 -14 99 -31z m1061 -64 c-2 -2 -55 -6 -118 -9 -100
-4 -107 -4 -50 5 48 7 72 17 90 35 14 14 21 24 15 23 -5 -1 -17 0 -25 4 -8 3
-22 8 -30 10 -8 3 8 6 35 6 50 1 51 1 53 -31 4 -49 12 -47 13 3 l1 44 10 -43
c5 -24 8 -45 6 -47z m212 75 c0 -5 -4 -10 -10 -10 -5 0 -10 5 -10 10 0 6 5 10
10 10 6 0 10 -4 10 -10z m110 6 c0 -11 -19 -15 -25 -6 -3 5 1 10 9 10 9 0 16
-2 16 -4z m-1643 -12 c-3 -3 -12 -4 -19 -1 -8 3 -5 6 6 6 11 1 17 -2 13 -5z
m-20 -56 c-3 -7 -5 -2 -5 12 0 14 2 19 5 13 2 -7 2 -19 0 -25z m-1998 18 c-2
-2 -48 -16 -102 -30 -83 -22 -120 -26 -233 -26 -106 0 -134 3 -134 14 0 13 84
26 177 26 23 0 45 5 48 10 4 6 57 10 127 10 67 0 119 -2 117 -4z m1091 -40 c0
-16 -18 -31 -27 -22 -8 8 5 36 17 36 5 0 10 -6 10 -14z m-463 -18 c-3 -8 -6
-5 -6 6 -1 11 2 17 5 13 3 -3 4 -12 1 -19z m1583 -31 c0 -5 -12 1 -27 13 -28
22 -28 22 -31 2 -2 -11 -12 -22 -23 -25 -25 -7 -24 1 2 30 21 22 23 22 50 6
16 -10 29 -21 29 -26z m-2773 -4 c-3 -10 -5 -4 -5 12 0 17 2 24 5 18 2 -7 2
-21 0 -30z m5193 27 c0 -5 -4 -10 -10 -10 -5 0 -10 5 -10 10 0 6 5 10 10 10 6
0 10 -4 10 -10z m-4995 -41 c-82 -3 -162 -11 -177 -17 -16 -6 -28 -8 -28 -3 0
5 10 12 23 16 26 9 308 22 322 15 6 -3 -57 -8 -140 -11z m3705 -34 l0 -55 -37
0 c-21 0 -75 -3 -120 -7 l-83 -6 0 50 0 50 113 10 c61 5 115 11 120 11 4 1 7
-23 7 -53z m1085 35 c3 -5 -1 -10 -9 -10 -9 0 -16 5 -16 10 0 6 4 10 9 10 6 0
13 -4 16 -10z m-6145 -30 c0 -28 -2 -30 -37 -28 -37 1 -37 1 -5 5 26 4 32 9
32 29 0 13 2 24 5 24 3 0 5 -13 5 -30z m3434 20 c-28 -6 -224 -134 -231 -149
-2 -3 -245 -5 -540 -3 -300 1 -532 6 -524 11 7 5 52 9 100 10 47 1 88 6 89 11
5 13 42 13 42 0 0 -6 87 -10 240 -10 132 0 240 4 240 9 0 4 -24 6 -52 4 -44
-3 -50 -2 -34 8 10 6 37 9 62 6 24 -2 44 -1 46 4 2 4 31 4 65 0 34 -4 60 -4
57 1 -3 4 11 7 31 6 19 -1 38 2 41 5 4 4 -190 7 -430 7 l-437 0 -9 -22 c-9
-22 -9 -22 -9 -2 -1 16 11 26 50 43 62 25 69 26 69 5 0 -13 11 -15 78 -9 139
11 295 26 374 35 75 9 132 5 153 -10 6 -4 46 -10 90 -13 75 -6 78 -5 40 7 -22
7 -44 11 -49 8 -5 -3 -6 0 -2 7 4 6 11 9 15 7 13 -8 244 -9 264 -1 25 10 22
-19 -5 -45 -39 -36 -3 -21 73 30 51 34 83 50 104 49 l30 -1 -31 -8z m174 3
c-10 -2 -28 -2 -40 0 -13 2 -5 4 17 4 22 1 32 -1 23 -4z m120 0 c-10 -2 -28
-2 -40 0 -13 2 -5 4 17 4 22 1 32 -1 23 -4z m364 -70 c-4 -35 -18 -57 -32 -48
-3 2 -3 26 -2 54 3 44 6 50 21 42 13 -7 16 -19 13 -48z m-4183 18 c-15 -5 -22
6 -14 19 6 9 10 9 16 -1 5 -8 4 -15 -2 -18z m4031 -6 c0 -18 -5 -25 -20 -25
-15 0 -20 7 -20 25 0 18 5 25 20 25 15 0 20 -7 20 -25z m-114 -10 c-5 -20 -3
-25 14 -25 18 0 20 -6 20 -54 0 -45 -3 -54 -20 -59 -18 -5 -20 0 -20 49 0 47
-2 54 -20 54 -14 0 -20 7 -20 23 0 29 7 37 33 37 15 0 18 -5 13 -25z m5001 19
c-3 -3 -12 -4 -19 -1 -8 3 -5 6 6 6 11 1 17 -2 13 -5z m-7633 -23 c-13 -11
-95 -33 -101 -28 -2 3 9 8 26 12 17 4 31 10 31 13 0 4 12 8 26 9 14 0 22 -2
18 -6z m2826 -33 c0 -48 -10 -78 -26 -78 -10 0 -14 15 -14 55 0 48 2 55 20 55
16 0 20 -7 20 -32z m-280 -18 c0 -22 -2 -40 -4 -40 -2 0 -11 -3 -20 -6 -13 -5
-16 1 -16 33 0 42 5 53 27 53 9 0 13 -13 13 -40z m2778 33 c-21 -2 -57 -2 -80
0 -24 2 -7 4 37 4 44 0 63 -2 43 -4z m2449 1 c-3 -3 -12 -4 -19 -1 -8 3 -5 6
6 6 11 1 17 -2 13 -5z m-6357 -14 c-34 -11 -60 -11 -35 0 11 5 29 8 40 8 16 0
15 -2 -5 -8z m130 -7 c0 -15 -2 -16 -10 -3 -5 8 -10 11 -10 5 0 -5 -19 -11
-43 -12 -39 -3 -41 -2 -23 12 29 22 86 20 86 -2z m6283 10 c-7 -2 -19 -2 -25
0 -7 3 -2 5 12 5 14 0 19 -2 13 -5z m-7553 -23 c0 -11 7 -20 15 -20 8 0 15 -7
15 -16 0 -9 9 -18 20 -21 11 -3 20 -12 20 -19 0 -8 -9 -14 -20 -14 -14 0 -20
-7 -20 -21 0 -18 -5 -20 -42 -17 -28 2 -42 7 -40 16 1 6 -2 12 -8 12 -5 0 -10
-7 -10 -15 0 -8 -9 -15 -20 -15 -20 0 -25 15 -14 45 5 13 8 14 15 3 7 -10 9
-9 9 5 0 9 -7 17 -15 17 -8 0 -15 9 -15 20 0 14 7 20 21 20 14 0 19 5 16 14
-8 20 2 26 40 26 26 0 33 -4 33 -20z m5049 -6 c14 -12 -19 -1 -35 12 -18 14
-18 14 6 3 14 -6 27 -13 29 -15z m2598 10 c-3 -3 -12 -4 -19 -1 -8 3 -5 6 6 6
11 1 17 -2 13 -5z m-2647 -49 c28 -14 50 -28 50 -30 0 -5 -99 42 -109 51 -12
11 15 1 59 -21z m2567 -1 c-3 -3 -12 -4 -19 -1 -8 3 -5 6 6 6 11 1 17 -2 13
-5z m-5377 -38 c0 -15 -7 -26 -20 -29 -13 -3 -20 -14 -20 -30 0 -16 -7 -26
-19 -30 -26 -6 -29 -2 -23 28 3 16 11 25 23 25 14 0 19 7 19 29 0 28 16 44 33
34 4 -2 7 -15 7 -27z m-2300 9 c0 -8 -9 -15 -20 -15 -11 0 -20 7 -20 15 0 8 9
15 20 15 11 0 20 -7 20 -15z m510 -13 c0 -23 4 -28 22 -28 17 1 22 -5 23 -24
0 -20 5 -25 23 -24 20 1 22 -3 22 -47 l0 -48 58 -3 57 -3 1 -35 c1 -26 1 -28
-3 -7 -2 15 -6 27 -8 27 -14 0 -155 -73 -155 -81 0 -5 -9 -9 -20 -9 -13 0 -24
-10 -30 -26 -10 -25 -12 -25 -81 -21 -39 2 -74 9 -78 15 -4 7 -93 12 -264 13
-141 1 -257 6 -257 11 0 4 7 8 15 8 8 0 15 5 15 10 0 6 -4 10 -10 10 -5 0 -10
7 -10 14 0 13 -5 13 -32 2 -18 -7 -46 -16 -63 -20 l-30 -6 25 15 c14 8 33 14
43 15 14 0 17 5 12 23 -4 14 -3 17 3 9 9 -13 112 -30 112 -19 0 4 -15 11 -32
16 -31 9 -31 9 -8 12 14 2 -27 6 -90 9 -108 6 -103 6 73 8 181 2 187 1 187
-18 0 -16 7 -20 38 -20 37 0 85 19 52 21 -37 2 29 18 77 18 l52 1 3 52 c3 49
5 53 28 53 20 0 26 6 28 28 3 22 8 27 25 25 17 -2 23 3 25 25 3 27 4 27 78 27
l74 0 0 -28z m7253 21 c-7 -2 -19 -2 -25 0 -7 3 -2 5 12 5 14 0 19 -2 13 -5z
m-6253 -27 c0 -24 -33 -46 -47 -32 -4 3 -1 6 5 6 7 0 12 8 12 18 0 10 3 22 7
25 13 14 23 6 23 -17z m6303 17 c-7 -2 -19 -2 -25 0 -7 3 -2 5 12 5 14 0 19
-2 13 -5z m61 -12 c3 -4 -6 -6 -19 -3 -14 2 -25 6 -25 8 0 8 39 4 44 -5z
m-157 -7 c-3 -3 -12 -4 -19 -1 -8 3 -5 6 6 6 11 1 17 -2 13 -5z m-7974 -44
c-106 -33 -128 -37 -175 -30 -52 7 -52 8 -13 10 80 5 103 8 138 19 20 7 39 16
41 19 2 4 -62 9 -142 11 -81 1 -149 5 -151 7 -2 2 92 4 210 3 l214 0 -122 -39z
m1607 5 c0 -16 -6 -25 -15 -25 -15 0 -21 31 -8 43 13 14 23 6 23 -18z m-1450
-29 c0 -6 -102 -37 -107 -33 -2 3 15 12 39 20 43 16 68 20 68 13z m8107 -2
c-3 -3 -12 -4 -19 -1 -8 3 -5 6 6 6 11 1 17 -2 13 -5z m40 -10 c-3 -3 -12 -4
-19 -1 -8 3 -5 6 6 6 11 1 17 -2 13 -5z m40 -10 c-3 -3 -12 -4 -19 -1 -8 3 -5
6 6 6 11 1 17 -2 13 -5z m50 -10 c-3 -3 -12 -4 -19 -1 -8 3 -5 6 6 6 11 1 17
-2 13 -5z m-8357 -8 c0 -6 -121 -46 -134 -45 -6 0 18 11 54 24 68 25 80 28 80
21z m8397 -2 c-3 -3 -12 -4 -19 -1 -8 3 -5 6 6 6 11 1 17 -2 13 -5z m46 -11
c-7 -2 -19 -2 -25 0 -7 3 -2 5 12 5 14 0 19 -2 13 -5z m-8800 -60 c-7 -2 -19
-2 -25 0 -7 3 -2 5 12 5 14 0 19 -2 13 -5z m40 -50 c-7 -2 -19 -2 -25 0 -7 3
-2 5 12 5 14 0 19 -2 13 -5z m1257 -27 c-20 -18 -273 -149 -266 -137 4 5 46
31 94 58 48 26 105 58 127 70 46 25 66 30 45 9z m6409 -38 l-2 -43 -6 35 c-4
26 -12 36 -28 38 -16 2 -23 -2 -23 -12 0 -9 -4 -16 -10 -16 -5 0 -10 9 -10 20
0 17 7 20 40 20 l40 0 -1 -42z m169 -66 l3 -42 -39 0 c-34 0 -41 4 -46 25 -4
14 -4 35 -1 48 6 21 11 23 43 18 35 -6 37 -8 40 -49z m-2378 28 c0 -5 -5 -10
-11 -10 -5 0 -7 5 -4 10 3 6 8 10 11 10 2 0 4 -4 4 -10z m-753 -32 c-3 -8 -6
-5 -6 6 -1 11 2 17 5 13 3 -3 4 -12 1 -19z m2863 12 c0 -5 -10 -10 -22 -9 -22
0 -22 1 -3 9 11 5 21 9 23 9 1 1 2 -3 2 -9z m-6751 -34 c-10 -9 -69 -36 -69
-32 0 7 52 35 64 36 5 0 7 -2 5 -4z m-79 -40 c0 -2 -7 -7 -16 -10 -8 -3 -12
-2 -9 4 6 10 25 14 25 6z m110 -50 c0 -2 -7 -7 -16 -10 -8 -3 -12 -2 -9 4 6
10 25 14 25 6z m4040 -86 c12 -16 19 -30 16 -30 -2 0 -14 14 -26 30 -12 17
-19 30 -16 30 2 0 14 -13 26 -30z m-3520 -4 c0 -2 -42 -32 -92 -67 -51 -35
-139 -95 -194 -135 -86 -60 -107 -71 -135 -69 -19 2 -85 4 -148 4 l-114 1 6
98 c4 53 7 112 7 130 l0 32 110 0 110 0 0 -50 c0 -44 3 -50 20 -50 12 0 33 8
47 17 l26 17 -24 7 c-21 6 -21 7 9 8 28 1 32 4 32 29 l0 27 170 2 c94 1 170 0
170 -1z m383 -86 c-13 -12 -63 -21 -63 -11 0 5 9 11 20 14 12 3 20 14 20 25 0
30 24 33 28 4 2 -13 0 -28 -5 -32z m3444 -37 c-3 -10 -5 -4 -5 12 0 17 2 24 5
18 2 -7 2 -21 0 -30z m-3669 0 c-4 -39 -28 -42 -28 -4 0 21 5 31 16 31 11 0
14 -8 12 -27z"/>
<path d="M4173 4443 c15 -2 39 -2 55 0 15 2 2 4 -28 4 -30 0 -43 -2 -27 -4z"/>
<path d="M3575 4279 c-13 -36 -45 -145 -45 -153 0 -6 3 -6 9 0 12 13 53 155
47 161 -3 3 -8 0 -11 -8z"/>
<path d="M3585 4200 c-4 -6 13 -10 44 -10 28 0 51 5 51 10 0 6 -20 10 -44 10
-25 0 -48 -4 -51 -10z"/>
<path d="M5293 4503 c9 -2 23 -2 30 0 6 3 -1 5 -18 5 -16 0 -22 -2 -12 -5z"/>
<path d="M5250 4200 c0 -5 18 -10 40 -10 22 0 40 5 40 10 0 6 -18 10 -40 10
-22 0 -40 -4 -40 -10z"/>
<path d="M6600 4518 c0 -74 8 -87 46 -86 37 1 41 12 28 91 -6 34 -9 37 -40 37
-33 0 -34 -1 -34 -42z"/>
<path d="M6530 4200 c0 -5 18 -10 40 -10 22 0 40 5 40 10 0 6 -18 10 -40 10
-22 0 -40 -4 -40 -10z"/>
<path d="M6710 4200 c0 -5 14 -10 31 -10 17 0 28 4 24 10 -3 6 -17 10 -31 10
-13 0 -24 -4 -24 -10z"/>
<path d="M7070 4521 c0 -40 0 -40 42 -43 38 -3 69 -28 34 -28 -17 0 -20 -21
-10 -82 6 -32 11 -38 30 -38 17 0 24 6 24 20 0 16 7 20 35 20 28 0 35 -4 35
-20 0 -15 7 -20 26 -20 26 0 26 1 20 52 -8 60 -12 68 -32 68 -8 0 -14 7 -14
15 0 11 11 15 40 15 39 0 40 1 34 28 -11 51 -12 52 -60 52 l-46 0 6 -35 c7
-35 7 -35 -29 -35 -28 0 -35 4 -35 19 0 41 -11 51 -56 51 l-44 0 0 -39z"/>
<path d="M9089 3708 c7 -10 20 -18 27 -18 8 0 14 8 14 18 0 14 -2 14 -9 3 -8
-13 -12 -13 -28 0 -16 13 -17 13 -4 -3z"/>
<path d="M9320 3710 c0 -6 53 -10 140 -10 87 0 140 -4 140 -10 0 -6 27 -10 60
-10 53 0 60 -2 60 -20 0 -13 7 -20 20 -20 13 0 20 7 20 20 0 17 7 20 40 20 38
0 40 -2 40 -30 0 -16 5 -30 10 -30 6 0 10 -10 11 -22 0 -13 3 -17 6 -10 2 6
14 12 26 13 19 0 18 2 -5 11 -39 14 -35 28 7 28 22 0 38 -6 41 -15 4 -8 11
-12 16 -9 6 4 5 10 -3 15 -10 6 -11 9 -1 9 7 0 12 15 12 40 0 33 -3 40 -20 40
-11 0 -20 -4 -20 -10 0 -5 -17 -9 -37 -9 l-38 2 35 7 c19 4 -99 8 -262 9 -193
1 -298 -3 -298 -9z m338 -7 c-10 -2 -26 -2 -35 0 -10 3 -2 5 17 5 19 0 27 -2
18 -5z"/>
<path d="M9068 3665 c-24 -33 -23 -43 2 -15 11 13 20 27 20 32 0 12 -3 10 -22
-17z"/>
<path d="M9140 3686 c0 -4 11 -18 25 -32 23 -23 34 -22 17 1 -11 16 -42 38
-42 31z"/>
<path d="M9623 3643 c9 -2 25 -2 35 0 9 3 1 5 -18 5 -19 0 -27 -2 -17 -5z"/>
<path d="M9783 3603 c9 -2 25 -2 35 0 9 3 1 5 -18 5 -19 0 -27 -2 -17 -5z"/>
<path d="M9828 3583 c7 -3 16 -2 19 1 4 3 -2 6 -13 5 -11 0 -14 -3 -6 -6z"/>
<path d="M8310 3610 c0 -5 5 -10 10 -10 6 0 10 5 10 10 0 6 -4 10 -10 10 -5 0
-10 -4 -10 -10z"/>
<path d="M7172 3490 c0 -14 2 -19 5 -12 2 6 2 18 0 25 -3 6 -5 1 -5 -13z"/>
<path d="M7151 3438 c0 -7 4 -22 9 -33 7 -17 9 -15 9 13 1 17 -3 32 -9 32 -5
0 -10 -6 -9 -12z"/>
<path d="M7081 3424 c0 -11 3 -14 6 -6 3 7 2 16 -1 19 -3 4 -6 -2 -5 -13z"/>
<path d="M7126 3378 c2 -28 9 -57 15 -62 9 -8 10 -2 5 23 -3 18 -6 46 -6 62 0
16 -4 29 -9 29 -5 0 -7 -23 -5 -52z"/>
<path d="M6978 3413 c7 -3 16 -2 19 1 4 3 -2 6 -13 5 -11 0 -14 -3 -6 -6z"/>
<path d="M7028 3393 c7 -3 16 -2 19 1 4 3 -2 6 -13 5 -11 0 -14 -3 -6 -6z"/>
<path d="M7064 3378 c3 -13 6 -26 6 -30 0 -9 40 3 40 12 0 22 -14 40 -32 40
-16 0 -19 -5 -14 -22z"/>
<path d="M7033 3326 c3 -7 9 -34 12 -60 6 -38 10 -44 21 -35 15 13 19 34 5 25
-12 -8 -21 18 -14 43 3 14 1 21 -8 21 -11 0 -11 2 1 10 13 8 12 10 -4 10 -11
0 -16 -5 -13 -14z"/>
<path d="M7099 3298 c4 -28 6 -29 9 -9 2 13 0 27 -5 32 -6 6 -7 -3 -4 -23z"/>
<path d="M7231 3302 c-1 -18 25 -26 46 -12 16 10 14 10 -9 6 -16 -4 -28 -1
-31 7 -4 9 -6 9 -6 -1z"/>
<path d="M7330 3269 c0 -5 5 -7 10 -4 6 3 10 8 10 11 0 2 -4 4 -10 4 -5 0 -10
-5 -10 -11z"/>
<path d="M7360 3260 c0 -5 5 -10 11 -10 5 0 7 5 4 10 -3 6 -8 10 -11 10 -2 0
-4 -4 -4 -10z"/>
<path d="M7246 3118 c5 -7 7 -49 5 -93 -3 -84 4 -100 12 -27 2 24 10 48 17 55
10 10 11 0 5 -48 -3 -33 -9 -70 -12 -82 -5 -22 -3 -23 79 -23 l85 0 -14 92
c-10 72 -11 93 -1 99 13 8 1 12 -96 29 -77 13 -89 13 -80 -2z"/>
<path d="M7125 3102 c-11 -2 -24 -8 -30 -13 -11 -11 56 0 68 11 8 7 -7 8 -38
2z"/>
<path d="M7181 3044 c0 -11 3 -14 6 -6 3 7 2 16 -1 19 -3 4 -6 -2 -5 -13z"/>
<path d="M7047 2983 c-14 -13 -7 -40 16 -60 17 -16 36 -21 90 -21 37 -1 67 2
67 7 0 14 -36 41 -54 41 -13 0 -16 5 -11 20 5 16 2 20 -15 20 -13 0 -24 -8
-27 -20 -3 -11 -12 -20 -20 -20 -10 0 -12 6 -8 20 5 15 2 20 -13 20 -10 0 -22
-3 -25 -7z"/>
<path d="M7690 2850 c0 -5 7 -10 16 -10 8 0 12 5 9 10 -3 6 -10 10 -16 10 -5
0 -9 -4 -9 -10z"/>
<path d="M7410 2821 c0 -4 11 -6 25 -3 14 2 25 6 25 8 0 2 -11 4 -25 4 -14 0
-25 -4 -25 -9z"/>
<path d="M7520 2820 c0 -5 7 -10 15 -10 8 0 15 5 15 10 0 6 -7 10 -15 10 -8 0
-15 -4 -15 -10z"/>
<path d="M7570 2790 c0 -5 7 -10 16 -10 9 0 12 -5 8 -12 -4 -7 -3 -8 4 -4 19
12 14 36 -8 36 -11 0 -20 -4 -20 -10z"/>
<path d="M7564 2583 c2 -13 -2 -23 -9 -25 -11 -2 -11 -5 0 -15 17 -15 26 13
13 42 -8 18 -8 18 -4 -2z"/>
<path d="M7446 2468 c3 -4 9 -8 15 -8 5 0 9 4 9 8 0 5 -7 9 -15 9 -8 0 -12 -4
-9 -9z"/>
<path d="M4940 3571 c-23 -7 -22 -8 14 -15 21 -4 41 -5 44 -2 3 3 -6 6 -19 7
l-24 1 25 8 c20 6 21 8 5 8 -11 0 -31 -3 -45 -7z"/>
<path d="M5093 3490 c0 -30 2 -43 4 -27 2 15 2 39 0 55 -2 15 -4 2 -4 -28z"/>
<path d="M4968 3523 c6 -2 18 -2 25 0 6 3 1 5 -13 5 -14 0 -19 -2 -12 -5z"/>
<path d="M4572 2775 c0 -16 2 -22 5 -12 2 9 2 23 0 30 -3 6 -5 -1 -5 -18z"/>
<path d="M4570 2665 c0 -8 4 -15 10 -15 5 0 7 7 4 15 -4 8 -8 15 -10 15 -2 0
-4 -7 -4 -15z"/>
<path d="M4130 2066 c0 -4 51 -38 163 -108 15 -10 27 -16 27 -13 0 2 -37 28
-82 58 -103 67 -108 69 -108 63z"/>
<path d="M4531 2004 c0 -11 3 -14 6 -6 3 7 2 16 -1 19 -3 4 -6 -2 -5 -13z"/>
<path d="M4578 1993 c7 -3 16 -2 19 1 4 3 -2 6 -13 5 -11 0 -14 -3 -6 -6z"/>
<path d="M4678 1963 c7 -3 16 -2 19 1 4 3 -2 6 -13 5 -11 0 -14 -3 -6 -6z"/>
<path d="M4585 1916 c3 -27 5 -57 5 -67 0 -11 4 -19 10 -19 11 0 2 83 -12 115
-6 13 -7 4 -3 -29z"/>
<path d="M4350 1923 c14 -10 37 -31 52 -46 15 -16 32 -26 37 -22 7 4 9 -35 5
-112 -3 -85 -2 -111 6 -95 5 13 14 21 20 17 12 -8 90 15 90 27 0 4 10 8 23 9
12 0 31 5 42 10 17 8 15 8 -7 4 -16 -3 -28 -1 -28 4 0 5 -6 9 -12 8 -58 -2
-58 -2 -58 77 0 41 -4 77 -9 80 -4 3 -22 0 -38 -6 -26 -10 -35 -8 -74 19 -49
33 -88 54 -49 26z"/>
<path d="M4446 1910 c12 -12 28 -20 35 -18 9 3 0 12 -21 22 l-35 18 21 -22z"/>
<path d="M4623 1922 c-16 -10 -5 -52 13 -52 18 0 24 13 17 38 -6 24 -11 26
-30 14z"/>
<path d="M4572 1760 c0 -14 2 -19 5 -12 2 6 2 18 0 25 -3 6 -5 1 -5 -13z"/>
<path d="M5995 2560 c3 -5 8 -10 11 -10 2 0 4 5 4 10 0 6 -5 10 -11 10 -5 0
-7 -4 -4 -10z"/>
<path d="M5925 2228 c4 -9 13 -19 21 -22 9 -3 12 -10 9 -16 -3 -6 1 -7 10 -4
9 4 15 7 13 8 -2 0 -16 12 -31 26 -19 17 -26 19 -22 8z"/>
<path d="M6190 2215 c0 -37 2 -38 38 -29 16 5 22 14 22 35 0 26 -4 29 -30 29
-28 0 -30 -3 -30 -35z"/>
<path d="M6380 2220 c0 -27 3 -30 30 -30 27 0 30 3 30 30 0 27 -3 30 -30 30
-27 0 -30 -3 -30 -30z"/>
<path d="M1650 2490 c0 -11 7 -20 15 -20 8 0 15 9 15 20 0 11 -7 20 -15 20 -8
0 -15 -9 -15 -20z"/>
<path d="M1718 2463 c7 -3 16 -2 19 1 4 3 -2 6 -13 5 -11 0 -14 -3 -6 -6z"/>
<path d="M1880 2460 c0 -5 7 -10 15 -10 8 0 15 5 15 10 0 6 -7 10 -15 10 -8 0
-15 -4 -15 -10z"/>
<path d="M1970 2460 c0 -5 4 -10 9 -10 6 0 13 5 16 10 3 6 -1 10 -9 10 -9 0
-16 -4 -16 -10z"/>
<path d="M2010 2452 c0 -18 38 -48 48 -37 4 4 -1 11 -11 16 -9 6 -17 17 -17
24 0 8 -4 15 -10 15 -5 0 -10 -8 -10 -18z"/>
<path d="M2285 2451 c-3 -5 -1 -12 5 -16 5 -3 10 1 10 9 0 18 -6 21 -15 7z"/>
<path d="M1780 2430 c40 -22 54 -25 44 -8 -5 7 -3 8 5 4 7 -5 10 -11 7 -14 -4
-3 26 -25 66 -48 l73 -42 5 46 c3 26 4 49 3 50 -2 4 -199 31 -223 31 -8 0 1
-8 20 -19z"/>
<path d="M2016 2396 c3 -9 12 -16 19 -16 7 0 15 -7 19 -15 3 -8 9 -14 13 -14
12 3 44 -12 76 -34 16 -10 30 -17 33 -15 2 3 -29 25 -69 50 -100 63 -98 61
-91 44z"/>
<path d="M2000 2371 c0 -6 4 -13 10 -16 6 -3 7 1 4 9 -7 18 -14 21 -14 7z"/>
<path d="M2001 2328 c-1 -21 15 -32 25 -17 4 7 3 9 -4 5 -6 -3 -13 2 -15 11
-4 16 -5 16 -6 1z"/>
<path d="M2060 2276 c0 -2 7 -7 16 -10 8 -3 12 -2 9 4 -6 10 -25 14 -25 6z"/>
<path d="M2393 2155 c0 -8 4 -15 9 -15 4 0 8 4 8 9 0 6 -4 12 -8 15 -5 3 -9
-1 -9 -9z"/>
<path d="M4840 2406 c0 -2 7 -9 15 -16 9 -7 15 -8 15 -2 0 5 -7 12 -15 16 -8
3 -15 4 -15 2z"/>
<path d="M5490 2376 c0 -8 -3 -21 -6 -30 -4 -11 2 -17 21 -22 30 -7 45 6 45
44 0 18 -6 22 -30 22 -19 0 -30 -5 -30 -14z"/>
<path d="M5543 2230 c2 -8 12 -16 23 -17 13 -2 15 -1 4 4 -8 3 -19 11 -23 17
-6 7 -7 6 -4 -4z"/>
<path d="M5927 1963 c-5 -30 -11 -41 -21 -37 -10 4 -16 -7 -21 -38 -3 -24 -9
-56 -12 -71 -4 -25 -2 -28 18 -25 22 3 25 11 37 93 13 91 12 156 -1 78z"/>
<path d="M3955 1950 c3 -5 8 -10 11 -10 2 0 4 5 4 10 0 6 -5 10 -11 10 -5 0
-7 -4 -4 -10z"/>
<path d="M3808 1918 c8 -8 17 -8 34 0 22 10 21 11 -11 11 -27 1 -32 -2 -23
-11z"/>
<path d="M3978 1893 c7 -3 16 -2 19 1 4 3 -2 6 -13 5 -11 0 -14 -3 -6 -6z"/>
<path d="M3778 1883 c6 -2 18 -2 25 0 6 3 1 5 -13 5 -14 0 -19 -2 -12 -5z"/>
<path d="M3984 1627 c3 -10 6 -21 6 -23 0 -2 10 -4 22 -4 12 0 19 2 17 4 -2 2
-7 4 -11 3 -4 -1 -14 7 -23 18 -15 18 -16 18 -11 2z"/>
<path d="M3933 1593 c9 -2 15 -9 12 -14 -4 -5 16 -9 46 -9 51 0 62 10 17 16
-57 8 -91 11 -75 7z"/>
<path d="M3632 1240 c0 -14 2 -19 5 -12 2 6 2 18 0 25 -3 6 -5 1 -5 -13z"/>
<path d="M457 1693 c-14 -13 -6 -41 13 -46 17 -4 20 0 20 24 0 27 -17 39 -33
22z"/>
<path d="M4448 1023 c7 -3 16 -2 19 1 4 3 -2 6 -13 5 -11 0 -14 -3 -6 -6z"/>
<path d="M4528 1012 c-18 -10 -28 -25 -28 -41 0 -20 2 -22 16 -10 10 8 12 15
5 17 -6 2 2 14 17 27 32 29 28 31 -10 7z"/>
<path d="M4413 983 c9 -2 25 -2 35 0 9 3 1 5 -18 5 -19 0 -27 -2 -17 -5z"/>
<path d="M4472 965 c0 -16 2 -22 5 -12 2 9 2 23 0 30 -3 6 -5 -1 -5 -18z"/>
<path d="M4180 950 c0 -5 5 -10 10 -10 6 0 10 5 10 10 0 6 -4 10 -10 10 -5 0
-10 -4 -10 -10z"/>
<path d="M4253 943 c9 -2 23 -2 30 0 6 3 -1 5 -18 5 -16 0 -22 -2 -12 -5z"/>
<path d="M2736 902 c-4 -18 -5 -36 -2 -39 11 -12 17 5 14 39 l-3 33 -9 -33z"/>
<path d="M2690 910 c0 -6 7 -10 15 -10 8 0 15 2 15 4 0 2 -7 6 -15 10 -8 3
-15 1 -15 -4z"/>
<path d="M7798 1923 c7 -3 16 -2 19 1 4 3 -2 6 -13 5 -11 0 -14 -3 -6 -6z"/>
<path d="M7853 1923 c9 -2 25 -2 35 0 9 3 1 5 -18 5 -19 0 -27 -2 -17 -5z"/>
<path d="M7753 1633 l2 -42 22 27 c11 15 19 29 16 32 -3 3 -8 -1 -11 -9 -3
-10 -8 -7 -17 10 -13 22 -13 21 -12 -18z"/>
<path d="M7708 1643 c7 -3 16 -2 19 1 4 3 -2 6 -13 5 -11 0 -14 -3 -6 -6z"/>
<path d="M7720 1579 c0 -7 -15 -9 -42 -5 l-43 5 43 -11 c23 -6 42 -16 42 -22
0 -15 20 16 20 32 0 6 -4 12 -10 12 -5 0 -10 -5 -10 -11z"/>
<path d="M7480 1559 c0 -5 5 -7 10 -4 6 3 10 8 10 11 0 2 -4 4 -10 4 -5 0 -10
-5 -10 -11z"/>
<path d="M7615 1560 c3 -5 11 -10 16 -10 6 0 7 5 4 10 -3 6 -11 10 -16 10 -6
0 -7 -4 -4 -10z"/>
<path d="M6425 1250 c-3 -5 1 -10 10 -10 9 0 13 5 10 10 -3 6 -8 10 -10 10 -2
0 -7 -4 -10 -10z"/>
<path d="M6440 1117 c0 -15 27 -43 34 -36 3 2 -4 15 -15 28 -13 16 -19 18 -19
8z"/>
<path d="M6817 1093 c-4 -3 -7 -21 -7 -40 0 -31 2 -33 35 -33 34 0 35 1 35 40
0 37 -2 40 -28 40 -16 0 -32 -3 -35 -7z"/>
<path d="M6820 949 c0 -77 11 -99 39 -82 17 10 19 8 25 -19 3 -17 6 -46 6 -64
0 -32 -2 -34 -34 -34 -40 0 -46 11 -46 87 0 53 -1 55 -22 49 -13 -3 -26 -6
-30 -6 -9 0 -11 -111 -3 -132 6 -14 53 -15 135 -4 19 2 60 5 92 5 l56 1 -5 39
c-6 43 3 95 15 87 4 -2 16 2 26 9 16 12 3 13 -90 9 -60 -3 -117 -7 -126 -9
-10 -2 -18 2 -19 8 -2 43 -11 113 -15 116 -2 2 -4 -25 -4 -60z"/>
<path d="M7100 949 c0 -9 11 -26 25 -39 14 -13 25 -21 25 -19 0 3 -11 20 -25
39 -14 19 -25 27 -25 19z"/>
<path d="M6878 943 c17 -2 47 -2 65 0 17 2 3 4 -33 4 -36 0 -50 -2 -32 -4z"/>
<path d="M6851 914 c0 -11 3 -14 6 -6 3 7 2 16 -1 19 -3 4 -6 -2 -5 -13z"/>
<path d="M6713 875 c-3 -9 -3 -18 -1 -21 3 -3 8 4 11 16 6 23 -1 27 -10 5z"/>
<path d="M6642 825 c31 -44 48 -56 48 -34 0 17 -51 79 -66 79 -9 0 -2 -16 18
-45z"/>
<path d="M6691 834 c0 -11 3 -14 6 -6 3 7 2 16 -1 19 -3 4 -6 -2 -5 -13z"/>
<path d="M6260 779 c-64 -6 -64 -6 23 -6 49 -1 86 1 84 3 -8 8 -42 9 -107 3z"/>
<path d="M6082 730 c0 -14 2 -19 5 -12 2 6 2 18 0 25 -3 6 -5 1 -5 -13z"/>
<path d="M7008 733 c7 -3 16 -2 19 1 4 3 -2 6 -13 5 -11 0 -14 -3 -6 -6z"/>
<path d="M7849 638 c-1 -35 -3 -73 -4 -85 -2 -20 3 -21 84 -25 47 -3 89 -2 92
1 3 3 4 43 1 89 l-4 82 -84 0 -84 0 -1 -62z m113 -23 c-3 -20 -10 -25 -33 -25
-24 0 -29 4 -29 25 0 22 4 25 34 25 30 0 33 -2 28 -25z"/>
<path d="M6090 686 c0 -4 6 -39 14 -79 8 -40 18 -91 21 -114 4 -24 12 -46 17
-49 7 -5 9 3 4 22 -4 16 -17 72 -27 124 -18 82 -29 120 -29 96z"/>
<path d="M5694 654 c3 -9 6 -20 6 -25 0 -5 11 -9 25 -9 20 0 25 -5 25 -25 0
-18 5 -25 20 -25 17 0 20 7 20 50 l0 50 -51 0 c-43 0 -50 -3 -45 -16z"/>
<path d="M5650 595 c0 -18 5 -25 20 -25 15 0 20 7 20 25 0 18 -5 25 -20 25
-15 0 -20 -7 -20 -25z"/>
<path d="M5698 543 c-1 -16 -2 -37 -2 -48 -1 -16 -9 -21 -46 -23 -25 -2 -48
-9 -52 -15 -15 -23 -8 -37 17 -37 20 0 25 -5 25 -25 0 -20 5 -25 25 -25 23 0
25 -3 25 -51 l0 -50 53 3 c45 3 52 6 55 26 3 16 10 22 28 22 21 0 24 3 18 25
-5 22 -3 25 20 25 21 0 26 5 26 24 0 23 -5 25 -47 28 -29 2 -48 8 -49 16 -1 6
-2 28 -3 47 -1 30 -4 35 -26 35 -20 0 -25 5 -25 25 0 37 -39 35 -42 -2z"/>
<path d="M4558 433 c7 -3 16 -2 19 1 4 3 -2 6 -13 5 -11 0 -14 -3 -6 -6z"/>
<path d="M4793 413 c9 -2 25 -2 35 0 9 3 1 5 -18 5 -19 0 -27 -2 -17 -5z"/>
<path d="M4557 368 c2 -5 45 -8 95 -8 50 0 88 3 84 8 -4 4 -47 7 -96 7 -48 0
-86 -3 -83 -7z"/>
<path d="M6763 333 c20 -2 54 -2 75 0 20 2 3 4 -38 4 -41 0 -58 -2 -37 -4z"/>
<path d="M6819 316 c-2 -3 -3 -23 -1 -46 4 -38 6 -40 43 -46 37 -6 39 -8 39
-44 0 -20 3 -58 6 -84 6 -44 6 -46 -19 -46 -46 0 -57 10 -57 50 0 44 -1 46
-53 55 l-38 7 3 -43 c3 -41 5 -44 43 -55 32 -9 41 -16 43 -37 3 -27 4 -27 83
-27 l80 0 -3 102 c-3 94 -5 103 -23 106 -64 9 -65 10 -65 57 0 36 -3 45 -17
45 -10 0 -27 3 -38 6 -11 3 -23 3 -26 0z"/>
<path d="M6004 149 c6 -37 3 -46 -20 -70 -15 -16 -32 -26 -37 -22 -6 4 -7 1
-3 -6 5 -7 0 -21 -10 -32 -17 -19 -13 -19 314 -19 l332 0 -21 52 c-12 29 -28
72 -36 96 l-15 42 -65 0 c-60 0 -64 -1 -58 -20 5 -17 2 -20 -23 -20 -21 0 -31
6 -35 20 -5 18 -14 20 -92 20 l-87 0 6 -45 7 -45 -72 0 c-85 0 -89 8 -6 12 51
2 55 4 35 14 -13 7 -25 23 -28 36 -5 19 -13 24 -49 26 l-44 3 7 -42z"/>
<path d="M6585 58 c4 -24 8 -44 9 -45 0 0 18 -4 39 -8 l37 -7 0 45 c0 42 -2
45 -31 51 -59 12 -61 10 -54 -36z"/>
<path d="M5612 20 c0 -14 2 -19 5 -12 2 6 2 18 0 25 -3 6 -5 1 -5 -13z"/>
</g>
</svg>
